<?xml version="1.0" encoding="utf-8"?>
<!-- Generator: Adobe Illustrator 23.0.1, SVG Export Plug-In . SVG Version: 6.00 Build 0)  -->
<svg version="1.1" id="Calque_1" xmlns="http://www.w3.org/2000/svg" xmlns:xlink="http://www.w3.org/1999/xlink" x="0px" y="0px"
	 viewBox="0 0 432 432" style="enable-background:new 0 0 432 432;" xml:space="preserve">
<style type="text/css">
	.st0{fill:#282828;}
	.st1{fill:#C0864D;}
	.st2{fill:#BF9C63;}
	.st3{fill:#D67388;}
	.st4{fill:#74AAAF;}
	.st5{fill:#F2ACA5;}
	.st6{fill:#A47B9B;}
	.st7{fill:#D5A8B2;}
	.st8{fill:#B6C8A3;}
	.st9{fill:#3C3C3B;}
	.st10{fill:#E1AD73;}
	.st11{fill:#354F2C;}
	.st12{fill:#9E1D28;}
	.st13{fill:#3E6689;}
	.st14{fill:#036838;}
	.st15{fill:#C7D2D8;}
	.st16{fill:#7D95B2;}
	.st17{fill:#E6E5E5;}
	.st18{fill:#80171B;}
	.st19{fill:#6595AA;}
	.st20{fill:#162640;}
	.st21{fill:#634E42;}
	.st22{fill:#EBCCD2;}
	.st23{fill:#362317;}
	.st24{fill:#C74E26;}
	.st25{fill:#827270;}
	.st26{fill:#EC6C78;}
	.st27{fill:#3C628E;}
	.st28{fill:#544841;}
	.st29{fill:#88525A;}
	.st30{fill:#EA94AA;}
	.st31{fill:#EF8491;}
	.st32{fill:#466C8C;}
	.st33{fill:#BF8E72;}
	.st34{fill:#8A2F2F;}
	.st35{fill:#3F4F45;}
	.st36{fill:#C58247;}
	.st37{fill:#A1272D;}
	.st38{fill:#DFEBF2;}
	.st39{fill:#ABB9CE;}
	.st40{fill:#333333;}
	.st41{fill:#9B3947;}
	.st42{fill:#4D4D4D;}
	.st43{fill:#C2B19F;}
	.st44{fill:#B0C268;}
	.st45{fill:#D98880;}
	.st46{fill:#D95548;}
	.st47{fill:#BA2314;}
	.st48{fill:#CC8A56;}
	.st49{fill:#E6E6E6;}
	.st50{fill:#728290;}
	.st51{fill:#CDDDEC;}
	.st52{fill:#DCE0E3;}
</style>
<g>
	<g>
		<g>
			<g>
				<path class="st0" d="M105.843,294.452c-0.195-0.065-0.325-0.065-0.521-0.065c-1.171,0-2.342-0.065-3.578,0
					c-0.651,0-1.366,0.065-2.017,0.26c-0.52,0.13-0.586,0.26-0.651,0.976c0,0.521,0.195,0.846,0.651,0.976
					c0.26,0.065,0.455,0.13,0.716,0.195c0.065,3.122,0.13,6.179,0.13,9.237c0,0.911,0,1.756-0.065,2.667
					c-0.065,1.951-0.26,3.838-0.325,5.789c-0.13,3.773-0.195,7.546-0.26,11.318c-0.065,3.968-0.13,8.001-0.195,12.034
					c0,0.455,0,0.911,0,1.366c-0.26,0.13-0.52,0.195-0.781,0.26c-0.195,0.13-0.39,0.26-0.455,0.39
					c-0.195,0.846-0.13,1.431,0.846,1.626c0.325,0.065,0.651,0.13,0.976,0.13c1.561,0,3.187-0.065,4.814-0.13
					c0.781,0,1.041-0.325,1.106-1.041c0.065-0.26,0-0.585,0-0.846c-0.065-0.39-0.26-0.521-0.586-0.586
					c-0.455,0-0.846-0.065-1.366-0.065c0.455-14.115,0.911-28.101,0.911-42.151c1.431-0.13,1.496-0.195,1.431-1.366
					C106.624,294.712,106.559,294.582,105.843,294.452z"/>
				<path class="st0" d="M126.202,331.855c-0.716-3.188-2.017-6.245-3.383-9.237c-1.691-3.838-3.513-7.546-5.204-11.319
					c-1.171-2.537-2.277-5.139-2.993-7.871c-0.39-1.496-0.52-3.057-0.26-4.619c0.26-1.236,1.106-1.951,2.407-1.951
					c0.716,0,1.431,0.13,2.017,0.585c0.911,0.586,1.757,1.301,2.667,2.017c0.26,0.195,0.521,0.455,0.846,0.586
					c0.39,0.26,0.846,0.195,1.236-0.13c0.39-0.325,0.325-0.716,0.195-1.171c-0.13-0.325-0.325-0.651-0.52-0.976
					c-1.757-2.472-4.228-3.513-7.221-3.318c-0.13,0.065-0.26,0.065-0.455,0.13c-2.212,0.521-3.643,2.017-4.424,4.098
					c-0.586,1.561-0.846,3.188-0.846,4.814c0,2.927,0.521,5.79,1.691,8.521c2.277,5.204,4.554,10.408,6.765,15.612
					c1.041,2.407,1.952,4.814,2.862,7.22c0.26,0.716,0.39,1.431,0.26,2.212c-0.13,0.846-0.586,1.496-1.431,1.691
					c-0.651,0.13-1.301,0.195-1.952,0.195c-1.301-0.065-2.342-0.716-3.253-1.561c-1.041-0.976-1.756-2.147-2.472-3.383
					c-0.195-0.39-0.39-0.716-0.651-1.041c-0.13-0.13-0.39-0.326-0.586-0.26c-0.846,0-1.366,0.716-1.106,1.496
					c0.586,1.496,1.171,2.928,2.147,4.163c1.171,1.496,2.602,2.537,4.424,2.993c1.626,0.455,3.317,0.781,4.944,0
					c0.976-0.521,1.952-1.041,2.797-1.692c0.976-0.716,1.626-1.756,1.821-2.992c0.065-0.521,0.13-1.106,0.13-1.626
					C126.723,335.042,126.462,332.896,126.202,331.855z"/>
			</g>
			<g>
				<path class="st0" d="M165.098,300.826c-0.846-1.561-1.822-2.992-3.123-4.163c-0.911-0.846-1.886-1.431-3.057-1.821
					c-1.431-0.456-2.797-0.39-4.163,0.39c-0.846,0.521-1.626,1.236-2.277,2.017c-1.627,1.952-2.797,4.228-3.448,6.7
					c-0.455,1.691-0.781,3.513-1.171,5.269c-0.651,3.188-1.171,6.31-1.301,9.562c-0.26,4.554,0.39,9.042,1.757,13.4
					c0.716,2.277,1.626,4.424,3.122,6.31c2.277,2.732,5.204,3.643,8.586,3.057c2.407-0.455,4.294-1.757,5.66-3.773
					c1.041-1.496,1.691-3.123,2.212-4.879c1.171-3.903,1.561-7.871,1.626-12.099c-0.065-3.773-0.39-7.611-1.301-11.448
					C167.505,306.42,166.529,303.493,165.098,300.826z M165.553,331.855c-0.455,1.496-0.976,2.927-1.821,4.228
					c-0.846,1.366-2.082,2.212-3.578,2.797c-0.781,0.26-1.366,0.195-2.017-0.586c-0.455-0.586-0.781-1.301-1.106-1.952
					c-0.651-1.626-0.976-3.382-1.301-5.074c-0.651-3.773-0.976-7.481-1.106-11.253c-0.13-4.749,0.065-9.432,0.39-14.115
					c0.13-1.692,0.325-3.383,0.846-5.009c0.26-0.846,0.586-1.626,1.171-2.342c0.455-0.586,0.976-0.846,1.692-0.846
					c0.325,0,0.651,0.13,0.911,0.39c1.041,0.716,1.822,1.692,2.472,2.732c1.106,1.692,1.886,3.578,2.537,5.464
					c1.171,3.448,1.822,7.025,2.082,10.668c0.13,1.366,0.195,2.667,0.26,4.033C166.919,324.634,166.529,328.277,165.553,331.855z"/>
				<path class="st0" d="M191.116,303.428c-0.065-2.147-0.13-4.293-0.26-6.44c-0.065-0.521-0.065-1.431-0.26-1.887
					c-0.13-0.586-0.52-0.781-1.106-0.716c-0.586,0.065-0.911,0.325-1.041,0.846c-0.065,0.456-0.195,1.366-0.195,1.887
					c0.065,4.488,0.325,13.4,0.325,13.4c0,0.781,0,1.561,0,2.277c0.13,5.074,0.13,10.147-0.325,15.221
					c-0.195,1.952-0.39,3.838-0.911,5.79c-0.26,1.041-0.716,2.082-1.431,2.927c-0.585,0.716-1.301,1.301-2.147,1.757
					c-0.976,0.52-1.756,0.26-2.212-0.781c-0.195-0.39-0.325-0.911-0.455-1.366c-0.521-2.277-0.651-4.618-0.846-6.96
					c-0.26-3.643-0.52-7.285-0.586-10.863c-0.13-5.204-0.065-10.343-0.13-15.482c0-1.561,0.065-3.057,0-4.618
					c0-0.846-0.13-1.757-0.26-2.667c-0.13-0.716-0.521-1.236-1.301-1.301c-1.041-0.065-2.017-0.13-3.057-0.13
					c-1.171,0-1.562,0.456-1.692,1.626c-0.065,0.781-0.13,1.562-0.13,2.342c-0.065,4.228,0.13,8.456,0.39,12.684
					c0.195,3.253,0.325,6.57,0.455,9.822c0.13,4.033,0.651,7.936,1.431,11.839c0.39,1.887,0.911,3.708,1.757,5.399
					c0.586,1.236,1.431,2.277,2.602,2.992c0.976,0.586,2.016,0.976,3.187,0.716c1.496-0.325,2.927-0.976,3.903-2.212
					c1.561-1.887,2.797-4.033,3.318-6.505c0.585-2.862,1.041-5.79,1.236-8.782c0.325-3.643,0.325-7.22,0.195-10.863
					C191.441,310.063,191.311,306.746,191.116,303.428z"/>
				<path class="st0" d="M212.579,294.322c-0.26,0-0.521,0-0.716,0c-1.366,0.065-2.667,0.13-4.033,0.13
					c-3.838,0-7.676-0.13-11.514,0.13c-0.65,0.065-0.911,0.26-1.041,0.911c-0.065,0.585,0.13,0.911,0.716,1.171
					c0.26,0.065,0.455,0.13,0.716,0.13c0.651,0,1.366,0,2.017,0c0.846,0,1.691,0,2.602,0c0,0.195,0,0.325,0,0.52
					c0,4.944-0.065,9.822-0.065,14.766c0,8.911,0.065,17.758,0.065,26.67c0,0.521,0,0.976,0,1.496
					c0.065,0.781,0.455,1.171,1.236,1.236c1.041,0.065,2.081,0.065,3.122,0.065c0.781-0.065,1.171-0.455,1.301-1.236
					c0-0.195,0-0.455,0-0.651c0.065-2.602,0.065-5.204,0.13-7.871c0.065-3.838,0.13-7.741,0.13-11.644
					c0-4.944-0.13-9.952-0.195-14.896c-0.065-2.667-0.13-5.334-0.195-8.001c0-0.195,0-0.39,0-0.651c0.585,0,1.041,0,1.561,0
					c0.976,0,2.017,0.065,2.992,0.13c0.455,0,0.846-0.065,1.301-0.13c0.521-0.13,0.911-0.651,0.846-1.236
					C213.555,294.842,213.165,294.452,212.579,294.322z"/>
			</g>
			<g>
				<path class="st0" d="M250.694,294.322c-0.26,0-0.521,0-0.716,0c-1.366,0.065-2.667,0.13-4.033,0.13
					c-3.838,0-7.676-0.13-11.514,0.13c-0.65,0.065-0.911,0.26-1.041,0.911c-0.065,0.585,0.13,0.911,0.716,1.171
					c0.26,0.065,0.455,0.13,0.716,0.13c0.651,0,1.366,0,2.017,0c0.846,0,1.691,0,2.602,0c0,0.195,0,0.325,0,0.52
					c0,4.944-0.065,9.822-0.065,14.766c0,8.911,0.065,17.758,0.065,26.67c0,0.521,0,0.976,0,1.496
					c0.065,0.781,0.455,1.171,1.236,1.236c1.041,0.065,2.081,0.065,3.122,0.065c0.781-0.065,1.171-0.455,1.301-1.236
					c0-0.195,0-0.455,0-0.651c0.065-2.602,0.065-5.204,0.13-7.871c0.065-3.838,0.13-7.741,0.13-11.644
					c0-4.944-0.13-9.952-0.195-14.896c-0.065-2.667-0.13-5.334-0.195-8.001c0-0.195,0-0.39,0-0.651c0.586,0,1.041,0,1.561,0
					c0.976,0,2.017,0.065,2.992,0.13c0.455,0,0.846-0.065,1.301-0.13c0.52-0.13,0.911-0.651,0.846-1.236
					C251.67,294.842,251.28,294.452,250.694,294.322z"/>
				<path class="st0" d="M271.117,294.452c-1.496-0.13-1.757,0.065-1.757,1.561c-0.065,1.236-0.065,2.797-0.13,4.033
					c-0.13,3.058-0.26,6.05-0.325,9.042c-0.065,3.318,0,6.57-0.065,9.887c0,0.521-0.065,1.041-0.13,1.561c-2.537,0-5.074,0-7.676,0
					c0-0.39,0-0.716,0-1.041c-0.065-4.033-0.13-8.066-0.26-12.164c-0.065-2.797-0.13-5.659-0.195-8.457
					c-0.065-1.041-0.13-2.081-0.26-3.122c-0.065-0.586-0.39-1.041-1.041-1.106c-0.781-0.13-1.561-0.195-2.407-0.195
					c-0.976,0.065-1.431,0.52-1.496,1.496c0,2.147-0.065,4.293-0.065,6.44c0.065,3.708,0.26,7.415,0.26,11.058
					c0.065,6.44-0.065,12.879,0,19.319c0,2.342,0.065,4.944,0.195,7.286c0.065,1.106,0.52,1.561,1.626,1.561c0.52,0,1.106,0,1.691,0
					c1.041,0,1.431-0.39,1.431-1.431c0.065-1.431,0.195-3.122,0.195-4.619c0.065-3.578,0.195-7.155,0.26-10.733
					c0-0.26,0-0.521,0-0.716c2.602,0,5.074,0,7.611,0c0,0.39,0,0.651,0,0.911c0,2.342-0.13,4.684-0.13,7.025
					c0.065,2.862,0.13,5.659,0.13,8.522c0,0.846,0.13,0.976,0.911,1.106c0.13,0,0.26,0,0.39,0c1.106,0,1.301-0.195,1.431-1.236
					c0-0.13,0-0.195,0-0.325c0.065-2.277,0.065-4.489,0.13-6.765c0.13-3.383,0.195-6.765,0.325-10.082c0-1.887,0-3.773,0.065-5.594
					c0.065-3.058,0.13-6.115,0.26-9.107c0.065-2.342,0.13-4.618,0.195-6.895c0.065-1.822,0.13-4.098,0.13-5.92
					C272.418,294.777,272.093,294.517,271.117,294.452z"/>
				<path class="st0" d="M290.955,338.099c-1.887-0.195-3.773-0.13-5.595,0c-0.976,0-1.951,0-2.927,0c0-0.325,0-0.521,0-0.716
					c0-0.781,0.065-1.496,0.065-2.212c0-3.578,0-7.156,0-10.733c0-0.325,0-0.651,0.065-1.106c0.781,0,1.431,0,2.082,0
					c1.627,0,3.253,0,4.814-0.065c0.521,0,1.041-0.13,1.496-0.195c0.325-0.065,0.52-0.325,0.585-0.651c0-0.39,0.065-0.781,0-1.106
					c0-1.171-0.39-1.692-1.561-1.692c-1.561-0.13-3.122-0.13-4.684-0.13c-0.911,0-1.756,0-2.667,0
					c-0.195-7.481,0.39-14.831,0-22.182c0.325,0,0.585,0,0.846,0c2.017,0,4.098,0,6.115,0c0.52,0,0.976,0,1.496-0.065
					c0.716-0.13,1.041-0.521,1.106-1.366c0.065-0.846-0.13-1.236-0.911-1.431c-0.586-0.13-1.171-0.195-1.822-0.195
					c-2.147,0-4.358,0.065-6.505,0.13c-2.147,0.13-4.228,0.26-6.375,0.391c-0.26,0.065-0.455,0.13-0.52,0.39
					c-0.065,0.521-0.13,1.106,0,1.626c0.065,0.325,0.52,0.52,0.846,0.846c0,0.13,0,0.39,0,0.651
					c-0.065,5.204-0.195,10.408-0.195,15.677c0,8.782,0,17.564,0,26.345c0,0.716,0.26,1.041,0.911,1.171
					c0.455,0.13,0.846,0.13,1.301,0.13c1.626,0,3.318,0,4.944,0c2.277,0,4.489,0,6.765-0.065c1.822,0,1.952-0.846,1.691-2.277
					C292.126,338.555,291.736,338.229,290.955,338.099z"/>
				<path class="st0" d="M312.94,339.27c-3.187-5.269-6.31-10.538-9.432-15.742c-0.065-0.13-0.13-0.195-0.13-0.325
					c0.065-0.065,0.065-0.13,0.13-0.13c0.13-0.065,0.325-0.13,0.455-0.195c3.903-1.756,6.57-4.684,7.806-8.782
					c0.586-2.147,0.651-4.293,0.39-6.505c-0.39-3.578-1.691-6.635-4.293-9.237c-2.212-2.147-4.684-3.578-7.806-3.903
					c-0.846-0.065-1.757,0-2.537,0.325c-0.716,0.325-1.171,0.781-1.236,1.561c-0.065,0.455-0.13,0.976-0.13,1.431
					c0,3.188,0,6.31,0,9.497c0,7.741-0.065,15.482-0.065,23.157c0,3.318-0.065,6.635-0.065,9.887c0,1.171,0.26,1.431,1.431,1.431
					c0.651-0.065,1.366-0.065,2.082-0.065c1.431,0,2.082-0.586,2.147-2.082c0-4.293,0.065-8.586,0.13-12.879c0-0.26,0-0.52,0-0.781
					c0.065-0.065,0.065-0.065,0.13-0.065c0.065,0.065,0.065,0.13,0.13,0.195c1.041,1.821,2.082,3.578,3.122,5.399
					c1.822,3.058,3.578,6.18,5.399,9.237c0.586,0.911,1.106,1.106,2.147,0.846c0.716-0.13,0.976-0.586,0.716-1.301
					C313.265,339.921,313.135,339.595,312.94,339.27z M301.816,320.926c0-0.26-0.065-0.52-0.065-0.781c0-3.708,0-7.416-0.065-11.123
					c-0.065-3.253-0.195-6.505-0.325-9.757c-0.065-0.651-0.13-1.366-0.26-2.147c0.911,0.26,1.496,0.716,2.147,1.236
					c2.928,2.537,4.814,5.659,5.269,9.562c0.456,4.098-0.455,7.741-3.253,10.798C304.288,319.821,303.182,320.536,301.816,320.926z"
					/>
				<path class="st0" d="M333.494,339.27c-0.195-0.716-0.586-1.041-1.366-1.171c-1.887-0.195-3.773-0.13-5.594,0
					c-0.976,0-1.952,0-2.928,0c0-0.325,0-0.521,0-0.716c0-0.781,0.065-1.496,0.065-2.212c0-3.578,0-7.156,0-10.733
					c0-0.325,0-0.651,0.065-1.106c0.781,0,1.431,0,2.082,0c1.626,0,3.253,0,4.814-0.065c0.52,0,1.041-0.13,1.496-0.195
					c0.325-0.065,0.52-0.325,0.585-0.651c0-0.39,0.065-0.781,0-1.106c0-1.171-0.39-1.692-1.561-1.692
					c-1.561-0.13-3.122-0.13-4.684-0.13c-0.911,0-1.756,0-2.667,0c-0.195-7.481,0.39-14.831,0-22.182c0.325,0,0.585,0,0.846,0
					c2.017,0,4.098,0,6.115,0c0.52,0,0.976,0,1.496-0.065c0.716-0.13,1.041-0.521,1.106-1.366c0.065-0.846-0.13-1.236-0.911-1.431
					c-0.586-0.13-1.171-0.195-1.822-0.195c-2.147,0-4.358,0.065-6.505,0.13c-2.147,0.13-4.228,0.26-6.375,0.391
					c-0.26,0.065-0.455,0.13-0.521,0.39c-0.065,0.521-0.13,1.106,0,1.626c0.065,0.325,0.521,0.52,0.846,0.846c0,0.13,0,0.39,0,0.651
					c-0.065,5.204-0.195,10.408-0.195,15.677c0,8.782,0,17.564,0,26.345c0,0.716,0.26,1.041,0.911,1.171
					c0.456,0.13,0.846,0.13,1.301,0.13c1.626,0,3.318,0,4.944,0c2.277,0,4.489,0,6.765-0.065
					C333.624,341.547,333.754,340.701,333.494,339.27z"/>
			</g>
		</g>
		<g>
			<g>
				<path class="st2" d="M67.95,311.111c-3.313,0.767-5.001,2.772-5.575,5.921c-0.843,4.623,4.105,10.112,10.351,6.955
					c2.4-1.213,3.534-3.505,3.635-5.745C76.602,312.892,71.717,310.239,67.95,311.111z"/>
			</g>
			<g>
				<path class="st2" d="M361.3,311.111c-3.313,0.767-5.001,2.772-5.575,5.921c-0.843,4.623,4.105,10.112,10.351,6.955
					c2.4-1.213,3.534-3.505,3.635-5.745C369.952,312.892,365.067,310.239,361.3,311.111z"/>
			</g>
		</g>
		<g>
			<path class="st0" d="M337.713,228.612c-0.574-3.956-3.727-6.21-7.63-5.468c-1.985,0.377-3.956,0.075-5.923-0.217
				c-0.427-0.063-0.567-0.33-0.571-0.736c-0.08-9.004-1.868-23.543-7.501-30.522c-3.456-4.282-8.813-5.191-11.777,0.969
				c-5.5,11.433-1.043,26.665,14.926,31.62c1.206,0.374,1.203,0.383,1.192,1.679c-0.092,11.054-2.955,40.593-9.255,49.795
				c-0.437,0.639-0.872,1.292-1.588,1.664c-0.956-0.507-1.737-3.048-2.013-4.14c-0.479-1.896-0.584-3.843-0.833-5.772
				c-1.724-13.332,1.19-26.035,0.613-30.178c-0.638-4.585-6.965-6.1-7.974-2.535c-0.307,1.084,0.087,0.201-8.649,18.894
				c-0.837,1.792-2.078,3.999-3.577,5.287c-1.233,1.06-1.64,0.974-2.372-0.438c-0.806-1.553-1.08-3.252-1.278-4.949
				c-2.775-23.822,1.122-25.713-0.743-28.542c-1.223-1.856-5.128-2.925-6.935,0.057c-3.031,5.005-2.324,16.816-2.624,18.21
				c-1.805,8.384-4.047,20.873-6.203,22.74c-2.639-2.657-4.094-9.286-4.766-12.835c-2.745-14.492-3.579-22.683-3.524-37.487
				c0.003-0.821,0.033-0.854,0.886-0.787c6.367,0.494,10.22-0.705,15.124-1.752c0.766-0.163,1.473-0.51,2.156-0.882
				c0.834-0.454,1.015-1.162,0.51-1.955c-2.086-3.278-7.505,1.507-17.357,0.976c-1.292-0.07-1.312-0.043-1.278-1.292
				c0.385-14.248,1.083-16.605,0.446-18.89c-0.809-2.9-4.906-4.048-6.789-0.892c-2.641,4.429-2.402,17.861-2.887,19.39
				c-13.84-3.035-30.917-10.649-48.427-5.034c-12.146,3.895-18.242,11.99-14.418,13.303c0.759,0.26,1.236,0.074,1.736-0.713
				c1.955-3.077,6.279-5.925,9.958-7.484c17.998-7.625,35.878,0.365,49.978,3.376c1.231,0.263,1.226,0.286,1.216,1.604
				c-0.056,7.056-0.088,13.802,0.7,21.125c0.136,1.264-0.139,1.531-0.837,6.235c-6.427,43.307-6.337,43.803-7.142,44.6
				c-1.506-2.546-1.998-7.136-2.216-10.031c-1.607-21.368,3.385-39.12-2.771-45.305c-2.23-2.241-6.68-3.596-10.077,0.096
				c-6.304,6.852-8.617,21.235-9.97,28.992c-0.916-1.404-1.193-4.582-1.855-8.691c-2.597-16.13,2.863-21.958-1.967-24.048
				c-2.407-1.042-5.13-0.138-6.356,3.635c-0.629,1.934-0.933,3.933-1.184,5.942c-0.857,6.873,0.152,10.118-0.396,11.638
				c-2.578,7.154-3.219,9.887-5.238,12.831c-4.61,6.719-7.688-0.673-9.766-8.559c-0.434-1.647,2.352-0.558,5.759-5.647
				c2.42-3.614,3.732-8.568,2.63-12.797c-1.599-6.14-8.711-7.227-13.216-2.789c-6.205,6.113-4.697,16.561-5.128,17.374
				c-1.852-1.288-3.332-2.805-4.63-4.517c-0.326-0.431-0.188-0.749,0.161-3.793c0.791-6.901,2.159-23.841-1.504-29.761
				c-1.858-3.004-5.567-3.45-8.093-0.987c-5.359,5.225-6.69,22.898,4.745,35.702c0.423,0.474,0.622,0.913,0.513,1.56
				c-0.619,3.685-3.692,21.099-6.599,23.42c-1.085-0.665-2.331-3.631-2.737-4.835c-0.787-2.332-1.225-4.746-1.729-7.144
				c-1.577-7.504-2.445-12.753-2.717-22.804c-0.094-3.499-0.783-6.495-4.337-6.526c-3.387-0.029-4.274,2.692-4.468,6.083
				c-0.679,11.848,1.652,15.255,0.768,22.577c-1.485,12.306-1.917,28.806-3.964,26.944c-2.771-2.521-4.503-7.312-5.498-10.933
				c-4.253-15.468-6.7-28.273-6.302-43.277c0.034-1.281,0.448-0.782,4.335-4.321c10.615-9.665,19.238-22.859,16.228-36.954
				c-1.929-9.033-9.528-11.538-15.069-6.732c-1.874,1.626-3.314,3.608-4.59,5.717c-6.813,11.258-8.949,26.406-10.097,39.453
				c-0.544-0.252-0.777-0.626-1.076-0.921c-7.293-7.207-19.643-7.015-24.129,5.213c-3.955,10.78-0.108,16.887-0.392,19.355
				c-1.607,13.96-1.879,20.142-3.956,22.742c-0.347,0.434-0.676,0.45-1.061,0.053c-3.857-3.971-4.182-14.839-4.47-17.842
				c-1.654-17.25,3.935-24.769-2.651-26.358c-1.872-0.452-4.163-0.133-4.951,2.473c-0.055,0.183-0.085,0.386-0.323,0.469
				c-0.384-0.09-0.615-0.428-0.921-0.652c-8.652-6.3-19.429-3.564-24.254,5.802c-9.19,17.839,6.587,37.426,17.225,27.226
				c4.239-4.064,5.842-10.243,6.501-10.379c0.354,0.754,0.162,5.605,4.403,13.456c1.617,2.993,4.698,7.298,7.834,8.379
				c7.823,2.695,7.914-11.702,8.903-20.286c0.028-0.241-0.105-0.556,0.288-0.742c0.432,0.634,0.858,1.276,1.302,1.907
				c6.321,8.983,14.538,5.492,18.483-3.887c1.708-4.06,3.219-8.209,3.476-8.471c0.785,0.414,0.362,12.258,6.209,26.024
				c2.43,5.721,6.598,13.434,12.16,16.096c3.24,1.551,5.762,0.394,6.733-3.066c1.205-4.296,1.291-15.02,2.092-22.34
				c0.695,0.565,3.665,8.674,9.177,11.37c3.082,1.507,5.861,0.664,7.593-2.29c2.628-4.483,4.787-15.998,5.659-21.132
				c0.044-0.258-0.006-0.558,0.338-0.754c1.749,1.148,3.15,2.182,5.272,2.88c0.639,0.21,0.894,0.56,1.034,1.212
				c2.626,12.173,16.685,20.915,22.651,7.87c0.828-1.811,1.158-2.881,2.558-6.908c0.475,0.424,3.747,13.326,10.906,12.349
				c1.312-0.179,2.232-0.846,2.635-2.151c0.992-3.212,1.181-16.706,7.631-26.482c0.69-1.046,1.472-2.012,2.429-2.825
				c0.19-0.162,0.364-0.427,0.688-0.277c0.971,1.254,0.014,15.257-0.268,22.372c-0.268,6.771,0.29,13.463,2.092,20.019
				c1.099,3.999,3.573,10.364,7.085,12.446c2.347,1.391,5.175,0.711,6.095-2.223c1.56-4.97,0.933-9.858,5.606-41.238
				c0.806,0.49,0.959,6.718,6.215,15.498c5.459,9.121,10.956,8.765,13.143,4.664c0.646-1.211,1.045-2.513,1.378-3.837
				c1.445-5.758,1.803-10.709,2.476-11.246c0.926,2.608,1.845,4.959,3.705,7.472c3.064,4.14,7.745,4.862,10.945,1.708
				c2.364-2.331,4.441-7.337,7.555-13.776c0.117-0.243,0.182-0.558,0.608-0.692c-0.721,10.656-2.233,21.874,3.922,30.574
				c3.642,5.148,9.21,5.776,12.473,1.751c1.745-2.153,3.08-5.792,3.894-8.439c4.173-13.568,5.553-29.919,5.787-44.105
				c0.004-0.252-0.084-0.547,0.216-0.738c1.027,0.16,2.526,0.414,3.43,0.651c1.767,0.462,1.572,0.067,1.598,2.044
				c0.124,9.634-1.338,25.576,0.897,44.22c0.597,4.98,0.846,7.631,2.415,8.67c1.642,1.088,3.369,1.097,5.109,0.281
				c2.949-1.384,2.182-4.611,1.485-12.341C337.123,250.339,338.442,233.637,337.713,228.612z M320.334,221.906
				c-0.676,0.014-1.233-0.294-1.801-0.524c-6.805-2.761-10.676-7.825-11.695-15.065c-0.918-6.526,1.199-12.219,2.965-14.023
				c3.205-3.274,7.007,6.674,8.279,11.143c1.198,4.21,1.813,8.519,2.108,12.877C320.211,216.63,320.523,221.393,320.334,221.906z
				 M144.183,190.792c0.863-1.347,1.761-2.678,2.956-3.75c1.407-1.262,1.619-1.241,2.616,0.4c1.137,1.872,1.505,3.99,1.647,6.144
				c0.739,11.264-7.869,22.373-15.963,30.29c-0.209,0.205-0.368,0.515-0.781,0.509C134.452,222.601,136.845,202.242,144.183,190.792
				z M80.052,244.494c-2.165,6.066-4.935,16.478-9.904,19.735c-1.936,1.27-3.112,1.047-4.436-0.842
				c-2.415-3.445-4.023-13.733-0.767-20.543c3.416-7.144,10.797-9.522,15.698-3.959c0.24,0.273,0.392,0.542,0.346,0.94
				C80.81,241.409,80.598,242.964,80.052,244.494z M124.469,238.362c-6.11,14.891-7.243,19.487-11.578,21.346
				c-3.438,1.475-6.697-10.937-5.409-20.065c0.426-3.018,1.397-5.822,3.396-8.193c4.552-5.402,10.118-0.36,13.717,5.708
				C124.875,237.63,124.623,237.985,124.469,238.362z M172.877,238.977c-0.471-0.131-0.468-0.455-0.56-0.684
				c-2.277-5.677-3.402-11.561-3.128-17.688c0.084-1.886,0.686-6.628,1.99-7.994c1.045,0.719,1.763,5.242,1.953,6.84
				C173.903,225.948,173.583,232.432,172.877,238.977z M194.024,234.48c2.839,3.059,0.731,12.804-4.105,15.147
				C189.594,244.019,190.394,238.891,194.024,234.48z"/>
			<path class="st0" d="M377.635,248.319c-0.836-0.871-3.104-0.96-3.661,0.599c-2.281,6.383-2.586,13.108-7.064,18.751
				c-8.85,11.152-16.885-8.001-16.323-22.508c0.032-0.818,0.04-0.834,0.933-0.94c4.047-0.482,8.062-1.131,11.007-4.167
				c1.562-1.61,2.452-3.529,2.353-5.785c-0.487-11.077-13.905-16.784-19.89-5.374c-3.269,6.231-5.202,17.549-2.033,30.025
				c2.047,8.059,8.909,15.164,18.878,15.368c1.596,0.046,4.199-1.14,6.529-3.051c5.607-4.601,7.184-11.271,9.218-18.841
				c0.24-0.894,0.286-1.842,0.397-2.768C378.035,249.155,377.998,248.698,377.635,248.319z M351.073,240.123
				c0.716-3.865,2.104-9.189,5.039-11.819c0.885-0.794,1.419-0.839,2.359-0.08c1.691,1.364,2.638,3.129,2.723,5.369
				c-0.186,5.142-4.51,6.548-9.576,7.151C351.134,240.801,350.992,240.565,351.073,240.123z"/>
		</g>
	</g>
	<g>
		<path class="st2" d="M274.934,145.321c-0.1,0.027-0.149,0.027-0.157,0.045c-0.747,1.715-2.427,1.432-3.398,0.001
			c-4.105-6.049-4.235-10.158-6.275-15.642c-2.566-6.897,0.983-11.526,3.534-15.963c-0.281,0.111-0.497,0.16-0.673,0.272
			c-10.594,6.773-10.342,4.122-18.345,10.197c1.354,1.658,6.859,6.84,8.028,7.893c4.549,4.098,5.746,7.719,8.078,12.868
			c4.555,10.056,10.226,14.769,11.54,16.685c1.357,1.977-0.332,3.982-2.414,3.292c-3.256-1.079-9.309-5.505-11.999-7.621
			c-4.459-3.508-5.735-6.43-8.763-11.745c-0.416,3.48,0.806,5.03,4.257,9.94c3.181,4.525,3.221,7.597,5.082,10.835
			c4.177,7.27,1.808,9.788,5.565,15.297c0.889,1.303,1.645,2.674,2.072,4.215c0.13,0.469,0.39,0.924,0.676,1.324
			c4.659,6.507,5.797,7.298,4.566,8.351c-2.588,2.216-11.422-13.428-21.926-20.786c-6.565-4.598-11.555-7.681-13.675-15.54
			c-3.986-14.776-8.298-11.261-9.131-23.97c-0.196-2.996-0.249-6.003-0.495-8.994c-0.134-1.632-0.599-3.234-0.813-4.862
			c-2.74-20.84-1.714-28.001-6.624-27.728c-10.067,0.56-11.285,9.138-25.686,29.995c-1.848,2.676-4.116,4.942-6.855,6.719
			c-13.698,8.887-5.845,6.208-19.8,13.857c-2.907,1.594-4.529,6.053-5.784,7.577c-0.588,0.715-1.582,0.512-1.846-0.374
			c-0.266-0.891,0.076-1.941,0.423-3.72c-2.112-0.381-4.214-0.883-6.213-2.019c-0.114,1.602-0.601,9.051,0.012,10.69
			c2.615,6.999,2.291,5.74,3.09,6.909c0.662,0.969,1.472,1.855,0.575,2.611c-0.9,0.759-1.778-0.347-2.609-1.216
			c-4.812-5.038-6.907-10.05-10.131-18.719c-3.432-9.228-7.5-8.082-13.474-16.649c-0.717,1.024-2.207,4.229-2.717,5.324
			c-4.332,9.299-7.413,9.309-15.075,21.717c-2.864,4.639-36.608,54.216-39.321,56.023c-0.858,0.572-1.741-0.171-1.214-1.162
			c1.796-3.382,35.419-52.304,39.731-59.165c4.956-7.886,8.646-10.23,10.282-13.575c1.791-3.66,3.595-7.314,5.407-10.964
			c2.347-4.728,6.919-1.704,10.436-0.36c2.035,0.778,6.892,0.156,9.145,5.808c0.581,1.458,4.091,8.391,5.091,9.133
			c2.384,1.768,5.117,2.619,8.052,3.064c0.981-1.528,2.096-3.606,4.928-4.614c9.752-3.469,7.365-5.649,18.201-12.415
			c3.447-2.152,6.063-5.071,8.205-8.484c1.585-2.525,12.813-20.436,14.639-22.851c5.869-7.759,17.614-9.739,21.43-0.457
			c7.385,17.96,7.169,5.761,15.191,24.684c0.965-0.555,1.911-0.988,2.731-1.593c5.036-3.718,5.686-2.197,15.417-7.67
			c1.697-0.955,3.468-1.715,5.335-2.205c5.199-1.364,2.168,4.513,5.917,15.365c0.86,2.489,1.717,3.305,6.66,8.284
			c3.234,3.258,11.358,4.647,16.28,14.239c6.52,17.603,38.3,51.508,49.413,61.365c1.129,1.001,2.141,1.999,1.123,3.2
			c-1.223,1.445-2.822-0.072-5.293-2.108c-11.004-9.063-42.921-42.351-49.552-48.898c-8.581-8.472-15.308-3.308-19.105-11.615
			c-0.49-1.072-0.915-2.174-1.373-3.261C275.188,145.873,275.056,145.593,274.934,145.321z"/>
		<path class="st2" d="M214.398,177.092c-1.688,2.23-2.649,2.633-10.013,6.203c-0.996,0.483-2.023,0.904-3.05,1.319
			c-8.022,3.248-10.885,8.619-15.736,15.55c-0.818,1.169-1.522,2.432-2.871,1.824c-1.126-0.508-0.879-1.694-0.522-2.849
			c5.045-16.301,5.143-17.509,7.324-20.395c2.404-3.181,4.277-5.223,2.753-8.399c-2.098-4.372-2.846-5.815-2.657-8.146
			c0.352-4.345,7.067-12.405,6.396-16.027c-1.348-7.281-1.517-7.702-1.176-9.285c0.284-1.315,2.155-2.259,3.163-0.13
			c3.316,7.004,4.912,8.549,5.389,14.313c0.439,5.309,0.766,7.919,3.504,10.997c2.13,2.394,7.05,7.678,7.608,8.445
			C215.969,172.517,215.979,175.004,214.398,177.092z"/>
		<path class="st2" d="M165.523,168.767c-1.337-8.588,0.767-10.51,8.7-22.768c0.744-1.15,1.671-2.196,2.763-1.406
			c0.504,0.365,0.766,0.902,0.556,1.504c-1.764,5.071,0.61,6.117-4.091,16.51c-1.616,3.573-0.844,5.911-0.575,10.442
			c0.265,4.451-2.061,6.587-6.339,11.863c-0.639,0.788-1.621,1.23-2.553,0.675C161.185,183.923,166.997,178.236,165.523,168.767z"/>
	</g>
</g>
</svg>
