<?xml version="1.0" encoding="utf-8"?>
<!-- Generator: Adobe Illustrator 21.1.0, SVG Export Plug-In . SVG Version: 6.00 Build 0)  -->
<svg version="1.1" id="Calque_1" xmlns="http://www.w3.org/2000/svg" xmlns:xlink="http://www.w3.org/1999/xlink" x="0px" y="0px"
	 viewBox="0 0 432 432" style="enable-background:new 0 0 432 432;" xml:space="preserve">
<style type="text/css">
	.st0{fill:#1B1B1B;}
	.st1{fill:#921E23;}
	.st2{fill:#DAB0B3;}
	.st3{fill:#343434;}
	.st4{fill:#C69C6C;}
	.st5{fill:#AD9DAF;}
	.st6{fill:#C7696C;}
	.st7{fill:#A5A56E;}
	.st8{fill:#509B89;}
	.st9{fill:#5A5151;}
	.st10{fill:#7B484D;}
	.st11{fill:#D2A1A6;}
	.st12{fill:#966C71;}
	.st13{fill:#4E4D4D;}
	.st14{fill:#83A67F;}
	.st15{fill:#CFAC75;}
	.st16{fill:#877979;}
	.st17{fill:#BCBCD1;}
	.st18{fill:#B4B1A2;}
	.st19{fill:#D5A7AA;}
	.st20{fill:#D1BC8C;}
	.st21{fill:#88AF8F;}
	.st22{fill:#CCB27F;}
	.st23{fill:#B8CFBC;}
	.st24{fill:#CA8A8C;}
	.st25{fill:#5B6781;}
	.st26{fill:#676767;}
	.st27{fill:#2B3447;}
	.st28{fill:#D1C6E3;}
	.st29{fill:#DDCD72;}
	.st30{fill:#8BA1C9;}
	.st31{fill:#E299C2;}
	.st32{fill:#BC8B59;}
	.st33{fill:#913E41;}
	.st34{fill:#BFABB3;}
	.st35{fill:#AB5D7B;}
	.st36{fill:#5D2A3E;}
	.st37{fill:#A49D78;}
	.st38{fill:#A4787A;}
	.st39{fill:#DEC968;}
	.st40{fill:#D19962;}
	.st41{fill:#AB585E;}
	.st42{fill:#7FAEDD;}
	.st43{fill:#CDCCCC;}
	.st44{fill:#F9B03D;}
	.st45{fill:#778DAE;}
	.st46{fill:#A494A7;}
	.st47{fill:#DDB58F;}
	.st48{fill:#615757;}
	.st49{fill:#B0C0D9;}
	.st50{fill:#A08B99;}
	.st51{fill:#8198AD;}
	.st52{fill:#D5B9A2;}
	.st53{fill:#6D91A9;}
	.st54{fill:#020203;}
	.st55{fill:#9489C1;}
	.st56{fill:#A57C9C;}
	.st57{fill:#824B70;}
	.st58{fill:#917C95;}
	.st59{fill:#A67D52;}
	.st60{fill:#5F7C50;}
	.st61{fill:#413939;}
	.st62{fill:#96AF8F;}
	.st63{fill:#E38CBA;}
	.st64{fill:#5D675F;}
	.st65{fill:#886873;}
	.st66{fill:#B2191D;}
	.st67{fill:#D99B9D;}
	.st68{fill:#8D5859;}
	.st69{fill:#E1AFB1;}
	.st70{fill:#AF8358;}
	.st71{fill:#FBC063;}
	.st72{fill:#A98199;}
	.st73{fill:#55735C;}
	.st74{fill:#C7A866;}
	.st75{fill:#6D8372;}
	.st76{fill:#A57B7C;}
	.st77{fill:#998F8F;}
	.st78{fill:#929D95;}
	.st79{fill:#581111;}
	.st80{fill:#D09D69;}
	.st81{fill:#8D5459;}
	.st82{fill:#C6905C;}
	.st83{fill:#5C7460;}
	.st84{fill:#BA999A;}
	.st85{fill:#B7B6D1;}
	.st86{fill:#539FA3;}
	.st87{fill:#B4B4B4;}
	.st88{fill:#746458;}
	.st89{fill:#CDA780;}
	.st90{fill:#EB5B28;}
	.st91{fill:#E2CE6A;}
	.st92{fill:#B6A9D3;}
	.st93{fill:#4F998B;}
	.st94{fill:#BAACD5;}
	.st95{fill:#60A88D;}
	.st96{fill:#879FAE;}
	.st97{fill:#35444D;}
	.st98{fill:#C18F5C;}
	.st99{fill:#9CA578;}
	.st100{fill:#E8C2C4;}
	.st101{fill:#C1292E;}
	.st102{fill:#AF9BB2;}
	.st103{fill:#617F63;}
	.st104{fill:#B6555C;}
	.st105{fill:#CC9864;}
	.st106{fill:#D3989E;}
	.st107{fill:#78B1B7;}
	.st108{fill:#C091A7;}
</style>
<g>
	<g>
		<g>
			<path class="st43" d="M157.2,230c-0.7,0.1-1.4,0.3-2.1,0.4c-0.4,0.1-0.8,0-1.1,0c-2.7-0.3-4.5-2.9-3.9-5.5
				c0.3-1.3,1.1-2.1,2.2-2.7c0.3-0.1,0.6-0.3,0.8-0.4c0.7-3.2,2.8-4.6,5.9-4.8c0-0.2,0-0.5,0-0.7c0-1.1,0.1-2.1,0.4-3.1
				c0.4-1.3,1-2.4,2.1-3.2c1.9-1.4,4.2-0.9,5.5,1c0.7,1,1,2.1,1.2,3.3c0.1,0.4,0.1,0.9,0.2,1.4c0.2-0.1,0.4-0.1,0.6-0.2
				c1.5-0.5,3-0.4,4.4,0.4c0.9,0.5,1.5,1.2,1.9,2c0.3,0.6,0.5,1.2,0.8,1.8c0.2-0.1,0.4-0.2,0.6-0.3c1.2-0.7,2.5-1.2,4-1.3
				c1.3,0,2.4,0.3,3.5,1c1,0.7,1.7,1.6,2.2,2.6c0.9,2,0.4,4.1-1.4,5.4c-0.8,0.6-1.8,1-2.8,1.2c-0.4,0.1-0.7,0.2-1.1,0.3
				c0,0.2-0.1,0.4-0.1,0.6c-0.2,2.4-2.5,4.5-5.1,4.6c-1.2,0-2.2-0.4-3.1-1.3c-0.5-0.5-1-1.1-1.4-1.7c-0.1-0.2-0.3-0.4-0.4-0.6
				c-0.1,0.2-0.2,0.3-0.3,0.5c-1.8,2.8-4.4,4.2-7.7,4.4c-0.5,0-1,0-1.5-0.1c-0.8-0.1-1.5-0.5-2.1-1.1c-0.9-0.9-1.5-2-1.7-3.3
				C157.3,230.4,157.3,230.2,157.2,230z"/>
			<path class="st43" d="M101,360.4c-1.2,0.3-2.3,0.7-3.4,0.9c-1.9,0.4-3.8,0.6-5.8,0.1c-1.6-0.4-3-1.2-4.1-2.5
				c-2-2.5-2-5.9,0.1-8.3c0.2-0.2,0.3-0.4,0.5-0.6c-0.1-0.1-0.1-0.2-0.2-0.2c-2-1.6-2.8-3.7-2.8-6.1c0-2.9,1.3-5.3,3.9-6.7
				c0.5-0.3,1.1-0.5,1.6-0.6c0.4-0.1,0.6-0.3,0.7-0.7c0.4-2,1.6-3.5,3.1-4.8c1.4-1.3,3.1-1.8,5-1.6c1.3,0.2,2.2,0.8,3,1.8
				c0.7,0.9,1.1,2,1.5,3.1c0.3,0.8,0.5,1.6,0.8,2.5c0.3,0,0.6,0,0.8,0c2.3,0,3.9,1,5,2.9c0.7,1.2,1.1,2.6,1.2,4c0,0.2,0,0.4,0.1,0.8
				c0.3-0.2,0.5-0.3,0.7-0.5c1.9-1.3,4-2.1,6.4-2.1c4.3-0.1,7.8,3.3,7.9,7.4c0,1.1,0,2.1,0,3.2c0,0.3,0,0.6,0.3,0.8
				c2.3,1.7,2.6,4.1,2,6.6c-0.6,2.6-2.4,4.2-4.8,5.1c-1.3,0.5-2.7,0.4-4-0.2c-0.9-0.4-1.7-1-2.6-1.5c-0.4-0.3-0.9-0.6-1.3-0.9
				c-0.2,0.2-0.3,0.4-0.5,0.6c-1.2,1.5-2.6,2.7-4.3,3.6c-3,1.4-6.6,0.3-8.2-2c-0.7-1-1.4-2.1-2-3.1C101.3,361,101.1,360.7,101,360.4
				z"/>
			<path class="st43" d="M329.2,165.1c-1.1,1.1-2.4,1.9-3.7,2.5c-1.7,0.8-3.5,1.3-5.4,1.3c-3,0.1-6.2-2.1-7-5.9
				c-0.5-2.7,0.7-4.6,2.6-6.1c0.4-0.3,0.9-0.6,1.3-0.8c0-1-0.1-2-0.1-2.9c0-1.2,0.5-2.2,1.2-3c1.3-1.4,3.2-1.8,5.2-1
				c0.5,0.2,0.9,0.4,1.3,0.7c3.5-3.8,8-1.8,8.5,2.8c0.3-0.1,0.5-0.3,0.8-0.4c1.7-0.9,3.5-1.4,5.5-1c2.1,0.5,3.6,1.6,4.1,3.8
				c0.3,1.1,0.2,2.3-0.2,3.4c-0.3,0.9-0.6,1.7-1,2.6c-0.2,0.5-0.2,0.9,0,1.4c0.7,1.5,0.8,3,0.4,4.6c-1.1,3.6-5.8,5.8-9.7,3
				c-1.3-0.9-2.1-2.1-2.9-3.4C329.8,166.2,329.5,165.7,329.2,165.1z"/>
		</g>
		<g>
			<path class="st53" d="M114.3,89.2c0.4,0.1,0.8,0.1,1.2,0.1c0.1,0,0.2-0.2,0.3-0.3c0.5-0.8,1-1.6,1.5-2.5c0.1-0.1,0.1-0.2,0.2-0.3
				c0.7-1.1,2-1.4,3.1-0.7c0.6,0.4,1.3,0.8,1.9,1.2c1,0.6,1.3,1.6,1,2.7c0,0.1,0,0.2-0.1,0.3c0.2,0,0.3,0.1,0.5,0.1
				c1.5,0.1,3.1,0.2,4.6,0.3c1.5,0.1,2.9,0.2,4.4,0.3c0.3,0,0.5-0.1,0.6-0.3c0.7-1.1,1.3-2.2,2-3.3c0.4-0.7,0.8-1.3,1.2-2
				c1.3-2.1,2.5-4.2,3.8-6.2c1.5-2.3,3-4.5,4.9-6.6c1.7-1.9,3.5-3.6,5.6-5c1.2-0.8,2.4-1.5,3.7-1.9c0.8-0.2,1.5-0.4,2.4-0.4
				c1.3,0.1,2.2,0.7,2.8,1.8c0.3,0.7,0.5,1.4,0.6,2.2c0.2,1.8,0.1,3.6-0.3,5.4c-0.5,2.8-1.5,5.4-2.7,8c-0.7,1.5-1.5,3-2.4,4.4
				c-0.7,1.1-1.3,2.2-2,3.2c-1,1.6-2.1,3.2-3.1,4.8c-0.6,0.9-1.2,1.8-1.7,2.6c-0.3,0.4-0.6,0.9-0.9,1.3c-0.2,0.3-0.2,0.5,0,0.8
				c0.4,0.8,0.9,1.5,1.3,2.3c1,1.7,2,3.5,3,5.2c0.1,0.1,0.2,0.3,0.3,0.4c0.1,0.2,0.2,0.2,0.4,0.1c0.2-0.2,0.4-0.4,0.7-0.5
				c0.7-0.4,1.4-0.3,2.1,0.1c0.8,0.4,1.5,0.9,2.2,1.4c0.9,0.6,1.2,1.8,0.7,2.8c-0.1,0.1-0.1,0.3-0.2,0.4c-0.5,0.8-1,1.7-1.6,2.5
				c-0.2,0.3-0.3,0.5,0,0.8c0.1,0.1,0.2,0.3,0.3,0.5c0.1,0.2,0.2,0.2,0.4,0.1c0.1-0.1,0.2-0.2,0.3-0.2c0.8-0.4,1.6-0.4,2.3,0
				c0.7,0.4,1.4,0.8,2.1,1.3c1.1,0.7,1.3,2,0.7,3.1c-0.5,0.8-1,1.6-1.5,2.4c-0.2,0.3-0.2,0.5,0,0.7c1.6,2.8,3.2,5.6,4.8,8.4
				c0.5,0.9,0.5,1.9-0.1,2.9c-0.8,1.3-1.7,2.7-2.5,4c-0.5,0.9-1.6,1.2-2.5,0.8c-0.3-0.1-0.6-0.4-0.8-0.6c-1.2-1.3-2.4-2.6-3.5-3.9
				c-3.2-3.5-6.3-7-9.5-10.5c-0.8-0.9-1.7-1.9-2.5-2.8c-0.3-0.4-0.7-0.6-1.1-0.9c-2.1-1.3-4.1-2.6-6.2-3.9c-0.1,0-0.1-0.1-0.2-0.1
				c-0.2-0.1-0.3-0.1-0.5,0.1c-0.4,0.6-0.8,1.2-1.2,1.8c-1.4,2-2.7,4-4.1,5.9c-2.6,3.6-5.2,7.1-8,10.6c-0.2,0.2-0.2,0.4-0.1,0.7
				c0.3,0.8,0.6,1.7,0.8,2.5c0.4,1.3,0.9,2.6,1.3,4c0.5,1.4,0.9,2.8,1.4,4.2c0.4,1.4,0.9,2.7,1.3,4.1c0.3,1,0.2,1.9-0.3,2.7
				c-0.4,0.6-0.7,1.1-1.1,1.7c-0.8,1.3-2.4,1.4-3.4,0.2c-1.7-2.2-3.5-4.4-5.2-6.6c-0.8-1-1.6-2-2.4-3.1c-0.4-0.5-0.9-0.7-1.4-1
				c-0.1-0.1-0.3,0-0.4,0.1c-0.3,0.1-0.6,0.3-0.9,0.4c-0.5,0.2-1.1,0.4-1.7,0.4c-1.3,0-2.3-0.9-2.6-2.1c-0.2-0.6-0.2-1.3-0.1-2
				c0-0.3,0-0.5-0.3-0.6c0,0-0.1,0-0.1-0.1c-0.6-0.5-1.3-0.7-2-0.8c-1.8-0.4-3.6-0.8-5.4-1.2c-1.9-0.4-3.9-0.8-5.8-1.3
				c-0.5-0.1-1-0.3-1.3-0.8c-0.5-0.7-0.6-1.5-0.2-2.2c0.4-0.7,0.8-1.4,1.3-2.1c0.5-0.7,1.1-1.1,1.9-1.2c1.4-0.2,2.7-0.4,4.1-0.6
				c1.6-0.2,3.3-0.4,4.9-0.7c2.2-0.3,4.4-0.6,6.6-0.9c0.3,0,0.4-0.2,0.5-0.4c1.2-2.5,2.4-5.1,3.7-7.6c1.2-2.4,2.5-4.7,3.8-7.1
				c1-1.8,2-3.5,3-5.3c0.2-0.3,0.2-0.3-0.2-0.5c-1.6-1-3.2-2-4.9-3c-0.5-0.3-1.1-0.7-1.6-1c-0.3-0.2-0.7-0.4-1-0.5
				c-5-1.5-10.1-2.9-15.1-4.4c-2.4-0.7-4.7-1.4-7.1-2.1c-0.2-0.1-0.4-0.1-0.6-0.2c-1-0.5-1.4-1.8-0.8-2.8c0.9-1.5,1.8-2.9,2.7-4.3
				c0.6-0.9,1.5-1.2,2.5-1.1c2.6,0.2,5.3,0.3,7.9,0.5c0.6,0,1.1,0.1,1.7,0.1c0.3,0,0.4-0.1,0.6-0.3c0.5-0.8,1-1.6,1.5-2.4
				c0.2-0.3,0.5-0.6,0.8-0.8c0.8-0.4,1.5-0.4,2.2,0c0.7,0.4,1.5,0.9,2.2,1.3c0.8,0.5,1.1,1.3,0.9,2.3
				C114.3,88.9,114.3,89,114.3,89.2z"/>
			<g>
				<path class="st53" d="M100,174.7c-0.2,0.8-0.3,2-0.6,3.1c-0.8,3.4-1.2,6.8-1.5,10.3c-0.1,1.1-0.1,2.2-0.3,3.3
					c0,0.4-0.1,0.7-0.3,1c-0.4,0.9-1.3,1.4-2.2,1.3c-0.9-0.1-1.7-0.7-2-1.6c-0.1-0.4-0.2-0.8-0.1-1.1c0.2-5.4,0.9-10.8,2.3-16.1
					c0.1-0.5,0.3-1.1,0.5-1.6c0.5-1.1,1.5-1.6,2.5-1.4C99.4,172.1,100,173,100,174.7z"/>
				<path class="st53" d="M190.3,259.5c0.3,0.1,1,0.2,1.5,0.5c1.6,0.9,3.3,1.8,4.9,2.7c2.9,1.7,5.8,3.5,8.7,5.3
					c0.4,0.2,0.8,0.5,1.2,0.8c0.8,0.7,1,1.9,0.5,2.7c-0.5,0.8-1.5,1.2-2.6,0.9c-0.3-0.1-0.6-0.2-0.9-0.4c-3.7-2.1-7.4-4.2-11-6.4
					c-1-0.6-2-1.3-2.9-2c-0.5-0.4-0.9-0.9-1.3-1.4c-0.4-0.6-0.5-1.3-0.1-1.9C188.7,259.6,189.3,259.5,190.3,259.5z"/>
				<path class="st53" d="M93.1,202c0.1-0.6,0.1-1.2,0.2-1.8c0.2-1,1-1.6,1.9-1.7c0.9,0,1.7,0.5,2,1.4c0.3,0.8,0.4,1.7,0.5,2.5
					c0.4,3.2,0.9,6.3,2,9.3c0.4,1,0.8,2.1,1.2,3.1c0.1,0.4,0.3,0.8,0.4,1.2c0.3,1.1-0.2,2.1-1.1,2.6c-0.9,0.5-2,0.3-2.7-0.6
					c-0.3-0.4-0.6-0.8-0.8-1.3c-1.7-3.6-2.8-7.4-3.3-11.3C93.3,204.3,93.2,203.1,93.1,202z"/>
				<path class="st53" d="M137.1,242.6c-4.9-0.2-9.7-1-14.3-2.4c-0.9-0.3-1.8-0.7-2.7-1.1c-0.4-0.2-0.8-0.6-1.1-1
					c-0.8-1.1-0.2-2.6,1.2-2.8c0.5-0.1,1,0,1.5,0.1c1.9,0.4,3.7,0.9,5.6,1.3c2.8,0.5,5.6,0.9,8.4,1.3c0.8,0.1,1.7,0.2,2.5,0.4
					c0.5,0.1,0.9,0.3,1.3,0.5c0.6,0.4,0.9,1,0.9,1.8c-0.1,0.8-0.5,1.4-1.3,1.6C138.4,242.5,137.8,242.5,137.1,242.6z"/>
				<path class="st53" d="M113.1,236.4c-0.4-0.1-0.8-0.2-1.1-0.3c-4.4-2.3-8.4-5.2-10.9-9.6c-0.4-0.7-0.8-1.4-1.1-2.2
					c-0.2-0.4-0.3-0.9-0.4-1.3c-0.1-0.9,0.3-1.8,1.1-2.2c0.8-0.4,1.6-0.3,2.3,0.3c0.3,0.2,0.5,0.5,0.7,0.8c0.4,0.5,0.7,1,1,1.5
					c1.8,3.2,4.6,5.6,7.6,7.5c0.6,0.4,1.1,0.7,1.7,1.1c0.4,0.3,0.7,0.6,1,1C115.9,234.6,114.8,236.4,113.1,236.4z"/>
				<path class="st53" d="M185.7,258.3c0,1.5-1.3,2.4-2.7,2c-0.3-0.1-0.7-0.3-1-0.5c-1.1-0.6-2.3-1.3-3.4-2c-3.1-1.8-6.3-3.6-9.7-5
					c-0.5-0.2-1-0.4-1.4-0.7c-0.3-0.2-0.6-0.4-0.8-0.6c-0.5-0.5-0.8-1.1-0.6-1.9c0.2-0.8,0.8-1.2,1.6-1.2c0.5,0,1,0,1.5,0.1
					c1.5,0.5,3,1,4.4,1.7c3.7,1.7,7.3,3.8,10.7,6C185.2,256.8,185.7,257.5,185.7,258.3z"/>
				<path class="st53" d="M144.6,240.1c1.2,0.2,2.6,0.5,3.9,0.8c4.1,0.9,8.1,2.1,12,3.7c0.9,0.4,1.7,0.8,2.1,1.8
					c0.4,0.9,0.2,1.7-0.7,2.2c-0.6,0.3-1.3,0.5-2,0.3c-0.6-0.2-1.2-0.3-1.8-0.5c-3.6-1.3-7.2-2.3-10.8-3.2c-1.1-0.3-2.2-0.7-3.2-1.1
					c-0.5-0.2-0.9-0.5-1.2-0.8c-1-1-0.6-2.5,0.8-2.9C143.9,240.2,144.2,240.2,144.6,240.1z"/>
				<path class="st53" d="M288.1,344.5c-0.3-0.1-0.7-0.1-1-0.3c-4.3-1.6-8.3-3.5-12-6.1c-0.4-0.3-0.7-0.5-1-0.8
					c-0.2-0.2-0.4-0.4-0.6-0.7c-0.7-0.8-0.8-1.7-0.3-2.4c0.4-0.7,1.3-1,2.3-0.8c0.4,0.1,0.9,0.3,1.2,0.4c0.6,0.3,1.2,0.6,1.8,1
					c3.2,2,6.7,3.5,10.1,5.1c0.4,0.2,0.8,0.4,1.1,0.7c0.7,0.6,0.9,1.6,0.6,2.4C289.9,344,289,344.5,288.1,344.5z"/>
				<path class="st53" d="M98.1,166.4c0.1-0.2,0.1-0.6,0.2-1c1.4-4.2,2.8-8.4,4.5-12.4c0.3-0.7,0.6-1.3,1-1.9c0.5-0.8,1.3-1,2.1-0.8
					c0.8,0.2,1.3,1,1.3,1.9c0,0.2,0,0.4-0.1,0.6c-0.1,0.4-0.2,0.8-0.3,1.2c-1.4,4.1-2.9,8.3-4.1,12.5c-0.2,0.5-0.4,1.1-0.7,1.6
					c-0.6,0.9-1.6,1.1-2.5,0.8C98.6,168.4,98.1,167.6,98.1,166.4z"/>
				<path class="st53" d="M322.3,350.8c-0.6-0.1-1.6-0.1-2.7-0.3c-0.4-0.1-0.9-0.3-1.3-0.6c-1.1-0.8-1-2.1,0.2-2.7
					c0.7-0.3,1.4-0.5,2.2-0.5c4-0.4,8-1,11.9-1.8c1-0.2,1.9-0.2,2.8,0.4c1,0.7,1.1,1.5,0.5,2.5c-0.4,0.7-1.1,1.2-1.9,1.4
					c-1.2,0.3-2.4,0.6-3.6,0.8C328,350.6,325.4,350.7,322.3,350.8z"/>
				<path class="st53" d="M296.5,344.7c1,0.2,2.1,0.3,3.2,0.5c3.5,0.7,7.1,1,10.6,1.1c0.4,0,0.9,0.1,1.3,0.2c1,0.3,1.6,1.2,1.6,2.2
					c0,1-0.7,1.8-1.8,2c-0.3,0.1-0.6,0.1-0.9,0.1c-2.6-0.2-5.1-0.4-7.7-0.8c-2.2-0.3-4.4-0.9-6.5-1.7c-0.6-0.2-1.1-0.5-1.6-0.9
					c-0.5-0.4-0.7-0.9-0.6-1.5c0.2-0.6,0.7-0.9,1.3-1.1C295.8,344.7,296.1,344.7,296.5,344.7z"/>
				<path class="st53" d="M257.9,322.5c0.3,0.1,0.8,0.2,1.3,0.5c0.9,0.4,1.7,0.9,2.5,1.5c2.5,1.7,5,3.2,7.7,4.6
					c0.2,0.1,0.5,0.3,0.7,0.5c0.8,0.7,1,1.8,0.6,2.7c-0.5,0.9-1.5,1.3-2.6,1c-0.3-0.1-0.7-0.3-1-0.4c-3.3-1.6-6.3-3.6-9.1-6.1
					c-0.4-0.4-0.8-0.7-1.2-1.1c-0.2-0.2-0.4-0.5-0.6-0.8c-0.3-0.5-0.4-1.1-0.1-1.7C256.3,322.7,256.9,322.5,257.9,322.5z"/>
			</g>
		</g>
	</g>
	<g>
		<g>
			<path class="st0" d="M219.4,313c0.4-0.4,0.8-0.8,1-1.2c0.8-1.3,1.6-2.7,2.3-4.1c1.5-3.3,2.9-6.7,4.3-10.1c0.7-1.6,1.2-3.3,1.9-5
				c0.5-1.2,0.6-2.4,0.5-3.7c-0.1-1.6-0.2-3.2-0.3-4.8c-0.1-2.9-0.2-5.9-0.3-8.8c0-1.5,0.2-2.9,0.6-4.4c0.3-1,0.7-1.9,1.4-2.6
				c1.5-1.7,3.7-2.1,5.7-1c0.8,0.4,1.4,1,1.9,1.7c0.8,1.1,1.4,2.3,1.8,3.5c1,2.9,1.6,6,2.1,9.1c0.9,5.2,1.6,10.5,2.5,15.7
				c1.1,6.3,2.5,12.6,4.8,18.7c0.1,0.2,0.2,0.5,0.3,0.7c0,0,0.1,0.1,0.2,0.2c0.3-0.2,0.6-0.5,0.8-0.7c0.5-0.7,1-1.3,1.4-2
				c3.1-5.5,5.9-11.2,8.6-16.9c0.6-1.2,1-2.5,1.5-3.7c-0.1-0.1-0.2-0.2-0.2-0.3c-2.9-2.2-4.5-5.1-5.4-8.6c-1.1-4.4-1.1-8.7,0.2-13.1
				c0.5-1.5,1.1-2.9,2.2-4.1c0.8-1,1.8-1.7,3.1-2c1.7-0.3,3.2,0.3,4.4,1.5c0.7,0.7,1.3,1.5,1.7,2.5c0.9,2.1,1.3,4.3,1.4,6.6
				c0.1,3.2-0.4,6.4-1.1,9.5c-0.3,1.3-0.6,2.6-1,4c1.8,1.2,3.7,1.5,5.9,1.4c0.2-1,0.4-2,0.5-2.9c0.6-2.8,1.4-5.6,2.7-8.2
				c1.5-3,3.6-5.5,6.5-7.2c2.4-1.4,4.9-1.9,7.7-1.5c3.9,0.7,5.9,4.2,6.3,6.7c0.4,2.9-0.5,5.4-2.4,7.6c-2.1,2.3-4.6,3.9-7.4,4.9
				c-0.2,0.1-0.5,0.2-0.8,0.3c0,0.4,0,0.8,0,1.2c0.4,3.7,0.9,7.4,1.9,11.1c0.2,0.8,0.6,1.7,1,2.5c0.1,0.3,0.3,0.6,0.5,0.8
				c1.1,1.4,2.4,1.5,3.7,0.4c2.4-2.1,4.7-4.4,6.7-6.9c0.8-1,1.6-2.1,2.5-3.2c0.8-1.1,1.7-2.1,2.5-3.2c0.3-0.4,0.4-0.7,0.5-1.2
				c0.1-2.6,0.1-5.1,0.3-7.7c0.5-7.3,1.8-14.4,3.8-21.4c1.3-4.7,2.8-9.3,4.9-13.8c1.4-2.8,2.9-5.5,5-7.9c2-2.3,4.3-4.1,7.1-5.4
				c1.1-0.5,2.2-0.8,3.4-0.9c2.8-0.3,5,0.8,6.8,2.9c1.2,1.4,1.9,3.1,2.3,4.9c0.6,2.5,0.5,5,0.2,7.5c-0.8,7.3-3.6,13.9-7.6,19.9
				c-3.2,4.9-7,9.2-11.3,13.2c-0.6,0.5-0.8,1-0.8,1.8c-0.3,3.7-0.4,7.5-0.3,11.2c0.2,5.4,0.8,10.8,2.3,16c0.5,1.7,1.1,3.3,2,4.8
				c0.4,0.6,0.8,1.2,1.2,1.8c1.6,1.9,4.5,2.4,6.6,1.1c0.7-0.4,1.4-1,2-1.5c2.1-1.8,3.8-4,5.2-6.3c1-1.7,2-3.4,3-5.1
				c0.5-0.8,1-1.5,1.5-2.2c0.2-0.3,0.4-0.5,0.7-0.7c0.5-0.4,1-0.6,1.6-0.4c0.6,0.2,1,0.7,1.1,1.4c0,0.4,0,0.8-0.1,1.1
				c-0.2,0.7-0.5,1.5-0.9,2.2c-0.6,1.2-1.3,2.3-1.9,3.4c-1.6,2.7-3.3,5.4-4.9,8.1c-1.1,1.7-2.2,3.4-3.3,5.1c-1.1,1.5-2.4,3-3.8,4.2
				c-1.5,1.3-3.1,2.2-5.1,2.6c-2.3,0.4-4.4,0-6.5-0.9c-1.3-0.6-2.4-1.4-3.5-2.4c-1.8-1.6-3.3-3.5-4.5-5.6c-2.3-4.1-3.8-8.6-4.8-13.2
				c-0.9-3.9-1.3-7.8-1.5-11.7c0-0.2,0-0.3-0.1-0.5c-0.4,0.1-0.5,0.4-0.7,0.6c-1.9,2.6-3.9,5.1-5.8,7.7c-1.4,1.8-2.9,3.6-4.6,5.2
				c-1.2,1.2-2.5,2.3-4,3.2c-1.2,0.8-2.5,1.3-4,1.4c-1.7,0.2-3.4-0.3-4.8-1.2c-2.8-1.8-4.8-4.2-6.1-7.3c-1.4-3.3-2.2-6.7-2.6-10.3
				c-0.1-0.9-0.1-1.8-0.1-2.8c-2.4,0.8-4.9,1.1-7.4,0.7c-0.1,0.3-0.2,0.5-0.3,0.7c-1.4,3.8-3.1,7.5-4.9,11.2
				c-2.3,4.7-5.1,9.1-8.5,13.2c-0.7,0.9-1.5,1.8-2.4,2.6c-2.4,2.3-4.9,2.3-7.5,0.2c-1.2-0.9-2.1-2.1-2.9-3.3
				c-2.1-2.9-3.5-6.2-4.7-9.5c-1.6-4.6-2.8-9.4-3.7-14.2c-0.1-0.4-0.1-0.8-0.2-1.4c-0.2,0.2-0.3,0.4-0.3,0.5
				c-1.7,4.2-3.4,8.4-5.1,12.7c-1,2.4-2,4.8-3.5,6.9c-0.6,0.9-1.2,1.7-2,2.5c-2.5,2.4-5.7,2.5-8.3,0.2c-2.3-2-3.7-4.6-4.6-7.5
				c-0.6-2.2-0.9-4.4-1.1-6.6c0-0.2,0-0.3-0.2-0.5c-0.1,0.3-0.3,0.6-0.4,0.9c-0.9,2.4-1.9,4.9-2.9,7.3c-0.9,2.1-1.9,4.1-3.2,6
				c-0.8,1.2-1.8,2.4-2.9,3.3c-2.7,2.3-5.8,2.5-8.7,0.5c-1.2-0.8-2.1-1.8-3-3c-2-2.7-3.2-5.8-4-9c-0.8-3.1-1.1-6.3-1.2-9.6
				c0-0.5,0-1,0-1.7c-0.2,0.2-0.3,0.4-0.4,0.5c-1.8,3.2-3.6,6.4-5.4,9.5c-0.8,1.4-1.8,2.8-3.1,3.9c-1,1-2.2,1.5-3.7,1.5
				c-1.3,0-2.3-0.5-3.2-1.3c-1.3-1.1-2.2-2.4-2.8-4c-1.3-3.3-1.5-6.7-1.2-10.2c0.5-5.2,1.9-10.2,3.6-15.2c1-2.9,2-5.7,2.7-8.7
				c0.2-1.1,0.4-2.1,0.4-3.2c0-1.3-0.4-1.7-1.6-1.6c-0.8,0-1.5,0.2-2.3,0.3c-0.4,0.1-0.7,0.2-1,0.3c-3.6,1.5-7.2,3.1-10.8,4.6
				c0.1,0.8,0.1,1.6,0.2,2.3c0.3,1.9,0.3,3.8,0.2,5.7c-0.2,6.5-0.8,12.9-1.8,19.3c-0.8,5.4-2.2,10.6-4.4,15.5
				c-1.8,3.9-4.4,7.1-8,9.5c-2.6,1.8-5.5,2.8-8.7,3.1c-4,0.4-7.6-0.5-11.1-2.4c-5.3-2.8-9-7.1-11.4-12.5c-1.7-3.7-2.7-7.5-3.2-11.5
				c-0.4-3.1-0.6-6.3-0.6-9.5c0-2.4,0.2-4.7,0.3-7.1c0-0.1,0-0.3,0-0.4c-0.1-0.1-0.1-0.1-0.1-0.1c-2.7-0.2-5.3,0-7.8,1
				c-0.8,0.3-1.5,0.7-2.2,1.2c-1.6,1.1-2.4,2.7-2.5,4.6c0,0.5-0.1,1.1-0.1,1.6c0,0.3-0.1,0.6-0.2,0.9c-0.3,0.7-0.8,1.2-1.6,1.3
				c-0.8,0.1-1.5-0.3-1.9-0.9c-0.5-0.8-0.6-1.7-0.6-2.6c0.2-4.1,2.2-7,5.6-9.1c3.2-1.9,6.7-2.4,10.3-2.2c0.2,0,0.4,0,0.7,0.1
				c0.1,0,0.2,0,0.3,0c0.1-0.7,0.2-1.5,0.2-2.3c0.7-5.9,1.9-11.7,4-17.2c0.5-1.4,1.3-2.8,2-4.2c0.6-1.1,1.4-2,2.4-2.7
				c2.2-1.6,4.6-1.3,6.4,0.7c1.2,1.5,1.9,3.2,2.2,5c0.6,3.2,0.7,6.3,0.4,9.5c-0.2,2.9-0.5,5.8-0.7,8.6c-0.2,2.1-0.4,4.1-0.6,6.2
				c0,0.2,0,0.4,0,0.6c0.2,0.1,0.3,0.2,0.5,0.2c2.5,0.7,5.1,1.3,7.8,1.5c1.9,0.1,3.8-0.2,5.6-0.9c1-0.4,2.1-0.8,3.1-1.1
				c0.3-0.1,0.6-0.1,0.9-0.2c0.4,0,0.7,0.2,0.9,0.6c0.1,0.4,0.1,0.7-0.2,1c-0.2,0.2-0.4,0.4-0.7,0.5c-4.1,2.5-8.6,3.6-13.4,2.9
				c-1.6-0.2-3.2-0.5-4.8-0.7c0,0.5-0.1,1-0.1,1.5c0,2.9-0.1,5.9,0,8.8c0.2,4.2,0.8,8.4,2.1,12.4c0.6,1.9,1.5,3.7,2.7,5.2
				c1.5,2,3.5,3.3,6,3.5c1.8,0.2,3.5-0.4,5.1-1.2c2.1-1.1,3.6-2.7,4.9-4.7c1.7-2.5,2.8-5.3,3.7-8.2c1.6-5.1,2.4-10.4,3.1-15.7
				c0.2-1.9,0.3-3.9,0.4-5.9c0.1-3.1,0-6.2,0-9.3c0-0.3,0-0.5-0.1-0.9c-0.3,0-0.5,0.1-0.7,0.1c-1.9,0.5-3.7,0.8-5.7,0.7
				c-5.4-0.1-9.4-3-11.1-8.1c-2.1-6.1-1-11.8,2.8-17c0.6-0.9,1.4-1.6,2.3-2.2c2.7-1.7,5.7-1.5,8,0.8c0.8,0.8,1.5,1.8,2.2,2.7
				c1.4,2.2,2.4,4.5,3.3,7c0.9,2.4,1.5,4.9,2,7.5c0,0.2,0.1,0.4,0.2,0.6c0.3-0.1,0.6-0.2,0.9-0.3c4.1-1.6,8.2-3.1,12.4-4.3
				c2.3-0.6,4.6-1.1,7-1.1c3.5,0,6.8,2.2,8,5.9c0.8,2.7,1,5.4,0.2,8.1c-0.9,3.6-2.3,7.1-3.7,10.5c-1.4,3.5-2.7,7-3.5,10.7
				c-0.6,2.9-1.1,5.8-0.9,8.8c0,0.3,0.1,0.6,0.1,1c0.1,0,0.1,0,0.2,0.1c0.2-0.2,0.4-0.4,0.5-0.6c2-3.2,4-6.4,5.9-9.6
				c1.2-2,2.4-4.1,3.5-6.2c0.2-0.4,0.4-0.9,0.5-1.4c0.5-2.4,1.2-4.7,2.4-6.8c1.7-3.1,4-5.4,7.3-6.7c5.3-2.2,11.5,0.4,13.7,5.7
				c0.5,1.1,0.8,2.2,0.8,3.5c0,0.2,0,0.5,0,0.7c-0.2,1.2-1.3,1.5-2.2,0.7c-0.3-0.3-0.6-0.7-0.9-1c-0.7-0.8-1.4-1.7-2.2-2.5
				c-0.4-0.4-0.9-0.8-1.5-1.1c-0.7-0.4-1.3-0.3-1.9,0.2c-0.7,0.6-1.2,1.4-1.5,2.3c-0.4,1.5-0.9,3-1.1,4.5c-0.7,3.8-0.8,7.7-0.6,11.6
				c0.1,3.8,0.7,7.6,2.3,11.2c0.2,0.6,0.5,1.1,0.8,1.6c0.3,0.5,0.5,0.5,1,0.2c0.7-0.4,1.2-0.9,1.7-1.5c1-1.3,1.7-2.8,2.3-4.3
				c1.8-4.9,2.7-10.1,3.5-15.2c0.4-2.4,0.8-4.9,1.3-7.3c0.2-1.2,0.7-2.3,1.3-3.4c0.6-1.1,1.4-2,2.5-2.6c1.9-1.2,4-1,5.6,0.5
				c0.9,0.8,1.5,1.9,1.9,3.1c0.5,1.7,0.8,3.4,0.8,5.2c0,4-0.1,7.9-0.2,11.9c-0.1,2.3,0.1,4.7,0.4,7c0.2,1.6,0.5,3.2,0.8,4.8
				C218.7,311.9,218.8,312.5,219.4,313z M320.3,279.3c0.1,0,0.2,0.1,0.2,0.1c0.9-0.9,1.7-1.9,2.5-2.8c4.9-5.7,8.8-12,11.3-19.2
				c1.4-3.9,2.1-7.9,1.9-12c-0.1-1.5-0.4-3-1.1-4.4c-0.4-0.8-0.9-1-1.7-0.7c-0.8,0.2-1.5,0.7-2,1.4c-0.5,0.8-1,1.5-1.5,2.3
				c-1.9,3.5-3.3,7.2-4.5,11c-1.8,5.8-3.1,11.8-4.2,17.8C320.9,274.9,320.6,277.1,320.3,279.3z M145.1,268.5c0-0.3,0-0.5-0.1-0.7
				c-0.4-1.7-0.7-3.3-1.1-5c-0.5-2.2-1.3-4.3-2.3-6.2c-0.4-0.7-0.9-1.4-1.4-2c-0.5-0.6-1.2-0.9-2-0.6c-0.8,0.2-1.2,0.8-1.4,1.6
				c-0.2,0.9-0.2,1.9,0,2.8c0.7,4.1,2.8,7.2,6.3,9.4C143.7,268.2,144.3,268.5,145.1,268.5z M286.3,287.9c0.3-0.1,0.4-0.1,0.5-0.1
				c2.3-1,4.3-2.4,5.7-4.6c0.5-0.7,0.9-1.6,1.1-2.4c0.5-1.9,0.2-3.6-1.2-5c-0.6-0.6-1.4-0.7-2.1-0.2c-0.4,0.3-0.8,0.7-1.1,1.1
				c-0.4,0.6-0.8,1.2-1.1,1.8C286.6,281.4,286.4,284.6,286.3,287.9z M264.9,285.9c0.1-0.3,0.2-0.5,0.3-0.6c0.7-2.3,1.2-4.7,1.5-7.1
				c0.2-1.9,0.2-3.7-0.1-5.5c-0.2-1.2-0.6-2.4-1.5-3.3c-1-1.2-1.7-1.1-2.3,0.4c-0.1,0.3-0.2,0.6-0.3,0.9c-0.2,1.2-0.4,2.4-0.5,3.6
				c-0.1,3,0.5,5.8,1.5,8.5C264,283.8,264.5,284.7,264.9,285.9z"/>
			<path class="st0" d="M226.4,173.3c4.9-6.2,8-13.4,9.6-21.2c-0.4,0-0.8,0-1.2,0c-1.8,0.2-3.7,0-5.4-0.5c-3.5-1-6.1-3.2-7.5-6.6
				c-1.6-4-1.9-8-0.3-12.1c0.6-1.5,1.4-2.8,2.6-3.9c2.8-2.6,6.4-2.8,9.5-0.5c1.5,1.1,2.6,2.6,3.4,4.2c1.4,2.8,2.2,5.8,2.4,8.9
				c0.1,1.7,0.1,3.4,0.2,5.2c0.3,0,0.6,0,0.9,0.1c2.2,0.1,4.3-0.3,6.4-0.6c2.5-0.4,5.1-0.6,7.6-0.6c1.6,0,3.1,0.2,4.6,0.7
				c3.7,1.2,5.7,3.8,6.3,7.6c0.4,2.6-0.2,5.1-0.9,7.6c-0.8,2.9-2,5.6-3.2,8.4c-1.7,4.1-3.5,8.2-5.1,12.3c-0.8,2-1.5,4-1.8,6
				c-0.2,1.2-0.2,2.4-0.3,3.6c0,0.2,0,0.5,0.1,0.7c0.2,1,0.6,1.1,1.4,0.6c0.4-0.3,0.8-0.6,1.2-1c0.6-0.7,1.2-1.4,1.7-2.1
				c2.2-3.1,4-6.3,5.7-9.7c1.2-2.3,2.3-4.6,3.4-6.9c0.2-0.4,0.3-0.8,0.4-1.3c0.2-3.2,0.3-6.4,0.6-9.6c0.7-8.2,2.1-16.2,5-23.9
				c2.8-7.4,7.1-13.7,12.9-19c2.2-2,4.6-3.6,7.5-4.2c3.4-0.8,6.5-0.1,9.3,1.9c1.9,1.3,2.8,3.3,3.3,5.5c0.6,2.7,0.3,5.4-0.5,8
				c-0.9,2.9-1.9,5.8-3.3,8.5c-2.7,5.5-6.8,9.9-11.7,13.5c-2.3,1.7-4.7,3.1-7.3,4.2c-0.4,0.2-0.7,0.4-0.8,0.9
				c-0.7,3.3-1.6,8.7-1.7,11c0.3-0.3,0.4-0.4,0.6-0.6c2.3-2.3,4.9-4.1,7.9-5.2c1.9-0.7,3.8-1,5.8-0.5c4.4,1,7,5,6.2,9.5
				c-0.6,3-1.9,5.7-3.6,8.2c-2.7,3.7-5.9,7-9.9,9.2c-0.1,0.1-0.2,0.1-0.4,0.2c0.6,0.7,1.1,1.4,1.8,2.1c3.2,3.4,6.6,6.6,10.4,9.4
				c1.9,1.3,3.8,2.6,6,3.3c0.8,0.3,1.7,0.4,2.6,0.5c1.9,0.1,3.4-0.6,4.7-2c1.5-1.6,2.9-3.3,3.9-5.2c1.6-2.9,3.1-5.8,4.7-8.7
				c0.3-0.5,0.5-1,0.8-1.5c0.5-0.7,1.2-1,1.9-0.7c0.7,0.2,1.3,1,1.1,1.8c-0.1,0.7-0.3,1.5-0.5,2.2c-1.2,3.3-2.8,6.5-4.8,9.4
				c-1.7,2.5-3.4,4.9-5.1,7.4c-1.2,1.6-2.6,3-4.2,4.1c-2.8,1.8-5.9,2.4-9.2,1.8c-2.5-0.4-4.9-1.3-7.1-2.6
				c-4.6-2.7-8.6-6.1-12.1-10.1c-0.1-0.1-0.2-0.2-0.4-0.4c0.1,0.3,0.1,0.5,0.1,0.7c0.5,2.4,1,4.7,1.4,7.1c0.3,1.6,0.4,3.2,0.1,4.8
				c-0.2,1.1-0.6,2.1-1.2,3c-0.9,1.3-2.2,1.7-3.7,1.4c-1.4-0.2-2.6-1-3.7-2c-1.3-1.3-2.2-2.8-2.9-4.5c-1.2-2.9-1.9-6-2.6-9.1
				c-1.1-4.9-1.8-9.9-2.1-15c-0.1-2.5-0.2-5-0.3-7.6c0-0.2,0-0.4-0.1-0.7c-0.1,0.2-0.2,0.4-0.3,0.6c-1.3,2.7-2.6,5.4-4,8
				c-1.2,2.2-2.5,4.4-4.1,6.3c-1.2,1.4-2.6,2.7-4.2,3.6c-0.9,0.5-1.8,0.8-2.8,0.8c-1.7,0-3-0.7-4-2c-1.1-1.4-1.7-3.1-1.9-4.9
				c-0.5-3.2-0.1-6.2,0.6-9.3c1.6-7.6,4.5-14.8,7.5-21.9c0.8-1.8,1.5-3.6,2.2-5.5c0.2-0.6,0.4-1.3,0.5-1.9c0.1-0.3,0.1-0.7,0-1.1
				c-0.2-1.3-0.6-1.7-1.9-1.9c-1.9-0.3-3.9-0.2-5.8,0.1c-3.1,0.6-6.1,1.2-9.1,1.8c-1.2,0.2-1.2,0.2-1.5,1.5
				c-1.6,7.5-4.5,14.5-9.2,20.6c-0.7,1-1.5,1.9-2.4,2.8c-0.5,0.5-0.7,1.1-0.7,1.8c-0.1,6.4-1.4,12.4-4.3,18.1c-1.7,3.4-4,6.3-7,8.6
				c-2,1.5-4.1,2.7-6.6,3.2c-5.2,0.9-9.6-0.7-13-4.8c-2-2.4-3-5.2-3.5-8.2c-0.7-3.7-0.3-7.4,0.6-11.1c0.1-0.3,0.2-0.7,0.2-1.1
				c0,0,0-0.1-0.1-0.3c-3.4,1.2-6.8,2.1-10.4,1.5c-0.1,0.3-0.2,0.5-0.2,0.7c-1,4.6-2.6,8.9-5.1,12.9c-1,1.5-2.1,3-3.5,4.2
				c-0.5,0.4-1.1,0.8-1.6,1.2c-2,1.2-4.1,1.4-6.2,0.5c-1.8-0.7-3.4-1.9-4.8-3.3c-1.5-1.6-2.7-3.4-3.6-5.4c-1.9-3.8-3-7.9-3.8-12
				c-0.4-2.2-0.7-4.4-1-6.7c0-0.1,0-0.3-0.2-0.4c-0.1,0.2-0.2,0.5-0.3,0.7c-0.3,0.9-0.6,1.7-0.9,2.6c-1.4,3.1-3,6.2-4.8,9.1
				c-0.6,1-1.2,1.8-1.9,2.7c-0.8,1-1.7,1.8-2.8,2.4c-2.7,1.4-5.6,0.8-7.6-1.1c-1.4-1.3-2.4-3-3-4.8c-0.8-2.3-1.3-4.8-1.4-7.2
				c-0.1-3.5,0-6.9,0.5-10.4c0.3-2.2,0.7-4.4,1.7-6.5c0.5-1,1-2,1.6-2.9c0.6-0.9,1.5-1.6,2.5-2.1c2.3-1.1,4.8-0.3,5.9,2
				c0.2,0.4,0.4,0.9,0.4,1.3c0.4,1.8,0.4,3.7,0.1,5.5c-0.7,3.8-1.4,7.5-2,11.3c-0.4,2.2-0.7,4.5-0.6,6.8c0,0.7,0.2,1.4,0.4,2.1
				c0.4,0.9,0.9,1.1,1.7,0.4c0.7-0.6,1.3-1.2,1.9-1.9c1.4-1.8,2.4-3.8,3.3-5.9c0.7-1.6,1.3-3.3,1.9-5c0.5-1.3,1-2.6,1.5-3.9
				c0.5-1.2,1.3-2.3,2.3-3.2c1.3-1.2,2.8-1.7,4.6-1.3c1.1,0.3,2,1,2.6,2c0.8,1.3,1.4,2.7,1.8,4.1c0.7,2.4,1.2,4.8,1.8,7.3
				c0.7,2.7,1.4,5.5,2.2,8.2c0.5,1.7,1.2,3.4,2.2,4.9c0.5,0.8,1.2,1.6,1.8,2.4c0.8,0.9,1.8,1,2.9,0.6c0.6-0.3,1.2-0.6,1.7-1.1
				c0.5-0.5,0.9-1.1,1.2-1.7c1.6-3,2.8-6.2,3.5-9.6c0-0.1,0-0.2,0-0.3c-0.1-0.1-0.3-0.1-0.4-0.2c-5.3-1.9-8.7-5.7-10.3-11
				c-1.5-4.8-1.1-9.5,0.8-14.2c0.5-1.1,1.1-2.2,1.9-3.1c1.2-1.3,2.7-2.1,4.6-2.1c1.1,0,2.1,0.4,2.9,1.1c0.7,0.7,1.4,1.4,2,2.2
				c1.7,2.4,2.4,5.1,2.9,8c0.6,3.4,0.6,6.7,0.4,10.1c-0.1,1.7-0.4,3.5-0.5,5.3c0.4,0.3,1,0.3,1.5,0.3c1.6,0.2,3.2,0,4.8-0.4
				c1.4-0.3,2.8-0.8,4.2-1.1c0.5-0.1,0.8-0.4,0.9-0.9c0.2-0.6,0.6-1.2,0.5-1.8c-0.1-0.6-0.6-1.1-1-1.6c-2.5-3.9-4-8.1-4.4-12.7
				c-0.2-2.7,0.1-5.3,1.3-7.8c2.1-4.3,5.6-6.8,10.3-7.6c3-0.5,5.8,0,8.6,1.3c3.1,1.4,5.7,3.5,7.9,6c4.2,4.9,6.8,10.7,8,17
				c0.2,1,0.3,2,0.5,3C226.3,173.3,226.3,173.3,226.4,173.3z M199.6,166.6c0.3-0.4,0.5-0.7,0.8-1c0.8-1,1.8-1.8,3-2.3
				c0.8-0.4,1.7-0.6,2.6-0.5c2.2,0.3,3.8,1.8,4.4,4c0.4,1.8,0.3,3.5-0.1,5.3c-0.3,1.5-0.7,3-1,4.5c-0.2,0.7-0.2,0.7,0.4,1
				c2.3,1.5,4.8,2.1,7.5,1.4c2.1-0.5,4-1.5,5.8-2.6c0.3-0.2,0.5-0.5,0.5-0.9c-0.1-1-0.2-2-0.3-3c-0.6-4.4-1.9-8.6-4.1-12.5
				c-2.3-4.1-5.7-7.3-10-9.4c-1.4-0.7-2.9-1.1-4.5-1.1c-1.9,0-3.5,0.7-4.7,2.3c-0.8,1-1.4,2-1.7,3.2c-0.7,2.4-0.8,4.8-0.4,7.2
				C198,163.7,198.6,165.2,199.6,166.6z M207.3,183.6c-0.1,0.3-0.2,0.5-0.3,0.8c-0.5,1.9-1,3.7-1.5,5.6c-0.5,2.2-0.9,4.3-1,6.6
				c0,1.1,0.1,2.3,0.5,3.3c0.3,0.7,0.8,1.2,1.4,1.6c0.8,0.4,1.7,0.6,2.6,0.7c1.7,0.1,3.2-0.5,4.6-1.4c4.1-2.7,6.6-6.5,8.1-11
				c1-3,1.4-6.2,1.6-9.3c0-0.2,0-0.3,0-0.6C217.7,184,212.1,184.5,207.3,183.6z M283.7,154.6c0.6-0.3,1.1-0.6,1.5-0.8
				c6.9-4.1,12.5-9.4,15.4-17.1c0.8-2.2,1.7-4.3,2-6.7c0.2-1.9-0.1-3.8-0.9-5.5c-0.4-0.8-1.1-1.2-1.9-1.2c-0.6,0-1.2,0.1-1.7,0.4
				c-0.7,0.4-1.4,0.9-2,1.4c-1.2,1-2.1,2.3-2.9,3.6c-1.9,3-3.5,6.2-4.6,9.7c-1.5,4.6-3.2,9.1-4.2,13.7
				C284.1,152.8,283.9,153.6,283.7,154.6z M279.9,190.5c0.4-0.2,0.7-0.3,1-0.5c2.6-1.5,5.1-3.2,7.2-5.3c1.3-1.4,2.4-2.9,3-4.6
				c0.9-2.4,1.1-4.8,0.4-7.3c-0.2-0.9-0.6-1.7-1.2-2.3c-0.7-0.8-1.6-1-2.6-0.7c-0.6,0.2-1.1,0.5-1.6,0.8c-1.5,1-2.7,2.3-3.6,3.8
				c-1,1.7-1.6,3.5-2.1,5.4C279.4,183.4,279.4,186.9,279.9,190.5z M180.5,178.4c0.4-2.4,0.6-4.7,0.5-6.9c-0.1-2-0.3-3.9-0.6-5.9
				c-0.3-2.1-0.8-4.2-1.9-6.1c-0.4-0.8-1-1.6-1.6-2.3c-0.5-0.6-1-0.5-1.5,0c-0.3,0.4-0.6,0.9-0.8,1.4c-0.2,1-0.5,2.1-0.5,3.1
				c-0.1,3.3,0.5,6.4,1.6,9.5c0.7,2.1,1.7,4,3.1,5.7C179.3,177.4,179.8,178,180.5,178.4z M236.8,146.4c0-0.4,0.1-0.7,0.1-1
				c0.1-1.6-0.1-3.3-0.3-4.9c-0.3-2.3-1-4.4-2.1-6.4c-0.4-0.6-0.8-1.2-1.3-1.7c-1.3-1.1-2.7-0.7-3.3,0.8c-0.3,0.8-0.4,1.7-0.4,2.5
				c0.1,3.6,1.5,6.7,4.3,9.1C234.5,145.6,235.5,146.1,236.8,146.4z"/>
		</g>
		<g>
			<g>
				<path class="st0" d="M206.4,242.6c1.9-0.4,3.7-0.8,5.5-1.2c0.8-0.2,1.6-0.3,2.4-0.5c0.5-0.1,0.7-0.3,0.6-0.9
					c-0.2-1.6-0.3-3.2-0.5-4.9c-0.4-4.3-0.3-8.7-0.3-13c0-1.4,0-2.9-0.1-4.3c0-0.4,0-0.7,0.1-1c0.3-0.7,0.8-1.1,1.5-1.1
					c0.7,0,1.2,0.4,1.6,1c0.2,0.4,0.2,0.9,0.2,1.4c0,2.9,0.1,5.7,0.1,8.6c0,5.1,0.4,10.2,1,15.3c0.2,1.8,0.4,3.6,0.7,5.4
					c0.2,1.2-0.4,2-1.4,2.2c-0.9,0.1-1.8-0.6-2-1.7c-0.1-1-0.2-1.9-0.4-2.9c-0.1-0.8-0.2-0.8-1-0.7c-1.2,0.2-2.4,0.5-3.6,0.8
					c-1.1,0.2-2.2,0.6-3.3,0.8c-0.5,0.1-0.7,0.3-0.6,0.9c0.3,2.4,0.7,4.8,1.3,7.2c0.1,0.4,0.2,0.8,0.2,1.1c-0.1,0.7-0.6,1.4-1.2,1.5
					c-0.7,0.2-1.4-0.1-1.8-0.7c-0.2-0.4-0.3-0.8-0.4-1.2c-0.8-3.2-1.2-6.4-1.6-9.6c-0.5-4.2-0.9-8.4-1.1-12.6
					c-0.2-4.4-0.1-8.8,0.6-13.1c0.1-0.4,0.1-0.8,0.4-1.1c0.4-0.6,1.1-0.9,1.8-0.7c0.7,0.2,1.2,0.7,1.2,1.5c0,0.5,0,0.9-0.1,1.4
					c-0.7,5.1-0.6,10.1-0.3,15.2c0.1,2,0.3,3.9,0.5,5.9C206.3,241.8,206.3,242.2,206.4,242.6z"/>
				<path class="st0" d="M235.6,254.6c0,1-0.4,1.5-1.1,1.8c-0.7,0.3-1.3,0.1-1.9-0.5c-0.4-0.4-0.6-0.9-0.6-1.5
					c-0.3-2.7-0.9-5.3-1.2-7.9c-0.1-0.5-0.2-0.7-0.8-0.7c-1.8,0.2-3.5,0.3-5.3,0.5c-0.5,0-0.6,0.4-0.6,0.8c-0.1,0.9-0.2,1.8-0.3,2.7
					c-0.1,1-0.2,2-0.3,3c0,0.1,0,0.2,0,0.3c-0.2,1.1-1,1.7-2,1.5c-0.9-0.1-1.5-1-1.4-2c0.1-1.5,0.3-3.1,0.5-4.6
					c0.4-3.1,0.6-6.2,0.9-9.3c0.7-6.4,1.7-12.7,3.3-18.9c0.2-0.6,0.4-1.2,0.7-1.7c0.9-1.1,2.3-1.2,3.2-0.1c0.5,0.5,0.7,1.2,0.9,1.9
					c0.9,2.6,1.4,5.3,1.8,8c1.2,7.5,2.4,15.1,3.5,22.6c0.2,1,0.4,2.1,0.6,3.1C235.5,254.2,235.6,254.5,235.6,254.6z M227.1,224.8
					c-1.3,5.8-2,11.6-2.6,17.4c-0.1,0.7,0.1,0.8,0.8,0.8c1.2-0.1,2.4-0.2,3.6-0.3c1.3-0.1,1.3-0.2,1.1-1.5c-0.1-0.4-0.1-0.8-0.2-1.1
					c-0.8-4.8-1.4-9.7-2.3-14.5C227.4,225.3,227.4,225,227.1,224.8z"/>
				<path class="st0" d="M243.6,243.3c1.3,1,2.6,2,3.9,3c0.8,0.6,1.5,1.2,2.3,1.7c0.5,0.4,0.9,0.9,0.9,1.5c0,1.1-1.1,1.9-2.2,1.6
					c-0.4-0.1-0.8-0.4-1.1-0.7c-1.7-1.3-3.4-2.7-5.2-4c-0.3-0.2-0.5-0.4-1-0.7c0,1.5,0.1,2.7,0.5,3.9c0.2,0.7,0.2,1.3,0,1.9
					c-0.3,0.8-0.9,1.2-1.7,1.2c-0.7,0-1.4-0.5-1.6-1.3c-0.2-1-0.3-2.1-0.5-3.1c-0.7-6.3-1-12.6-1.3-18.9c-0.1-1.8,0-3.6-0.1-5.5
					c0-0.4,0-0.8-0.1-1.2c-0.3-1.2,0.2-2,1.4-2.4c1.6-0.4,3.3-0.6,5-0.4c2.1,0.2,4.1,0.6,6.1,1.5c2.8,1.3,5,3.3,5.8,6.4
					c1.1,3.8,0,7-2.5,9.9c-1.8,2.1-4.2,3.4-6.7,4.4C245,242.7,244.3,242.8,243.6,243.3z M240,228.3c0,2.1,0.3,4.2,0.4,6.3
					c0.1,1.7,0.2,3.4,0.3,5.1c0,0.7,0.2,0.8,0.9,0.6c1.6-0.5,3.2-1,4.8-1.8c1.7-0.9,3.1-2,4.2-3.6c2.4-3.5,1.5-7.6-2.3-9.7
					c-2.3-1.3-4.8-1.7-7.4-1.6c-0.8,0-0.8,0.1-0.8,0.9C240,225.7,240,227,240,228.3z"/>
				<path class="st0" d="M271.8,235.4c-0.1,6.7-2.8,12.1-8.1,16.3c-0.4,0.3-0.9,0.6-1.3,1c-0.6,0.5-1.3,0.7-2,0.7
					c-1.1,0-1.9-0.7-2-1.8c-0.6-6.5-1.2-13-1.7-19.6c-0.3-3.6-0.4-7.3-0.6-10.9c0-0.5,0-1,0.2-1.5c0.3-0.7,0.8-1.1,1.6-1.2
					c0.9-0.1,1.7,0,2.5,0.2c6,1.7,9.5,5.8,10.8,11.9C271.6,232.1,271.8,233.7,271.8,235.4z M261.5,248.8c0.5-0.1,0.6-0.3,0.8-0.4
					c3.8-3.3,5.9-7.5,6.1-12.5c0.1-2.7-0.3-5.3-1.4-7.8c-1.3-3-3.7-4.9-6.7-6c-0.7-0.2-0.7-0.2-0.7,0.5c0,0.6,0.1,1.2,0.1,1.9
					c0.2,3,0.4,6,0.6,9.1c0.2,3.1,0.5,6.3,0.8,9.4C261.2,244.8,261.3,246.8,261.5,248.8z"/>
			</g>
			<g>
				<path class="st0" d="M162.9,351.9c-0.3-5.1-0.5-10.2-0.2-15.4c0.1-2.9,0.2-5.7,0.4-8.6c0-0.5,0-0.9-0.2-1.4
					c-0.3-0.7-0.8-1.1-1.5-1.1c-0.7,0-1.2,0.4-1.5,1c-0.1,0.3-0.2,0.7-0.2,1c0.1,1.4,0,2.9-0.1,4.3c-0.2,4.3-0.5,8.7-0.3,13
					c0.1,1.6,0.1,3.3,0.2,4.9c0,0.5-0.1,0.8-0.7,0.8c-0.8,0.1-1.6,0.2-2.4,0.3c-1.8,0.3-3.6,0.6-5.5,0.9c0-0.4-0.1-0.7-0.1-1.1
					c-0.1-2-0.2-3.9-0.2-5.9c-0.1-5.1,0.1-10.2,1-15.2c0.1-0.5,0.2-0.9,0.2-1.4c0-0.8-0.5-1.4-1.1-1.6c-0.7-0.2-1.4,0-1.9,0.6
					c-0.2,0.3-0.3,0.7-0.4,1.1c-0.9,4.3-1.2,8.7-1.3,13.1c0,4.2,0.1,8.4,0.5,12.7c0.3,3.2,0.5,6.5,1.1,9.7c0.1,0.4,0.2,0.8,0.4,1.2
					c0.4,0.6,1.1,1,1.8,0.8c0.7-0.1,1.2-0.7,1.3-1.5c0-0.4,0-0.8-0.1-1.1c-0.5-2.4-0.7-4.8-0.9-7.3c0-0.6,0.1-0.7,0.7-0.8
					c1.1-0.2,2.2-0.4,3.3-0.6c1.2-0.2,2.4-0.4,3.7-0.6c0.8-0.1,0.9-0.1,0.9,0.7c0.1,1,0.1,1.9,0.2,2.9c0.1,1.1,0.9,1.9,1.9,1.8
					c1-0.1,1.6-0.9,1.5-2.1C163.1,355.5,163,353.7,162.9,351.9z"/>
				<path class="st0" d="M178.8,361.5c-0.8-7.6-1.6-15.2-2.4-22.8c-0.3-2.7-0.7-5.5-1.4-8.1c-0.2-0.7-0.4-1.3-0.8-1.9
					c-0.9-1.1-2.3-1.1-3.2-0.1c-0.4,0.5-0.6,1.1-0.8,1.7c-1.9,6.1-3.2,12.4-4.2,18.7c-0.5,3.1-0.8,6.1-1.4,9.2
					c-0.3,1.5-0.5,3.1-0.7,4.6c-0.1,1,0.5,1.9,1.3,2c1,0.2,1.8-0.4,2-1.4c0-0.1,0-0.2,0-0.3c0.1-1,0.3-2,0.4-3
					c0.1-0.9,0.3-1.8,0.4-2.6c0.1-0.4,0.2-0.8,0.7-0.8c1.8-0.1,3.6-0.1,5.3-0.2c0.6,0,0.7,0.2,0.8,0.7c0.2,2.7,0.7,5.3,0.8,8
					c0,0.6,0.2,1.1,0.6,1.5c0.5,0.6,1.2,0.8,1.9,0.6c0.7-0.3,1.1-0.8,1.1-1.8c0-0.1-0.1-0.4-0.1-0.8
					C179.1,363.5,179,362.5,178.8,361.5z M173.2,353c-1.2,0.1-2.4,0.1-3.6,0.1c-0.7,0-0.8-0.1-0.7-0.8c0.8-5.8,1.9-11.5,3.5-17.2
					c0.4,0.2,0.3,0.5,0.4,0.8c0.7,4.8,1.1,9.7,1.6,14.6c0,0.4,0.1,0.8,0.1,1.2C174.5,352.9,174.5,353,173.2,353z"/>
				<path class="st0" d="M194.3,333.1c-1.9-1-3.9-1.5-6-1.8c-1.7-0.3-3.3-0.2-5,0.2c-1.2,0.3-1.7,1.1-1.5,2.3c0.1,0.4,0,0.8,0,1.2
					c-0.1,1.8-0.2,3.6-0.2,5.5c0,6.3,0,12.6,0.4,18.9c0.1,1,0.1,2.1,0.3,3.1c0.1,0.8,0.8,1.3,1.5,1.4c0.7,0.1,1.4-0.4,1.7-1.1
					c0.3-0.6,0.3-1.2,0.1-1.9c-0.4-1.2-0.3-2.5-0.3-3.9c0.4,0.3,0.7,0.5,0.9,0.7c1.7,1.4,3.3,2.8,5,4.2c0.3,0.3,0.7,0.6,1.1,0.7
					c1.1,0.4,2.2-0.3,2.2-1.5c0-0.7-0.3-1.2-0.8-1.6c-0.7-0.6-1.5-1.2-2.2-1.9c-1.2-1.1-2.4-2.1-3.7-3.2c0.7-0.4,1.4-0.5,2-0.7
					c2.6-0.9,5-2.1,6.9-4.1c2.6-2.8,3.9-6,3-9.8C199.1,336.7,197.1,334.6,194.3,333.1z M195.2,346.4c-1.2,1.5-2.7,2.6-4.4,3.4
					c-1.6,0.7-3.2,1.2-4.8,1.6c-0.7,0.2-0.8,0.1-0.8-0.6c0-1.7,0-3.4,0-5.1c0-2.1-0.1-4.2,0-6.3c0.1-1.3,0.1-2.6,0.2-3.8
					c0-0.9,0.1-0.9,0.9-0.9c2.6,0,5.1,0.6,7.3,1.9C197.1,338.8,197.8,342.9,195.2,346.4z"/>
				<path class="st0" d="M205.9,330.6c-0.8-0.3-1.6-0.4-2.5-0.3c-0.8,0.1-1.3,0.4-1.6,1.1c-0.2,0.5-0.3,1-0.3,1.5
					c0,3.6,0,7.3,0.1,10.9c0.2,6.5,0.4,13.1,0.7,19.6c0,1.1,0.8,1.9,1.9,1.9c0.8,0,1.5-0.1,2.1-0.6c0.4-0.3,0.9-0.6,1.3-0.9
					c5.5-3.9,8.5-9.1,8.9-15.8c0.2-1.7,0-3.3-0.3-5C215.2,336.9,211.9,332.7,205.9,330.6z M213,348.3c-0.4,5-2.7,9.1-6.7,12.2
					c-0.2,0.1-0.4,0.3-0.8,0.4c-0.1-2-0.2-4-0.2-5.9c-0.1-3.1-0.2-6.3-0.3-9.4c-0.1-3-0.1-6-0.1-9.1c0-0.6,0-1.2,0-1.9
					c0-0.7,0.1-0.7,0.7-0.5c3,1.2,5.2,3.3,6.4,6.4C213,343,213.2,345.6,213,348.3z"/>
				<path class="st0" d="M228.5,330c-2.1-0.5-4.3-0.8-6.4-1c-0.5,0-1.1,0-1.6,0.1c-0.8,0.2-1.3,0.6-1.5,1.4
					c-0.1,0.4-0.2,0.9-0.3,1.4c-0.2,2.1-0.5,4.2-0.6,6.4c-0.6,6.9-1,13.9-0.7,20.8c0.1,1.7,0.2,3.5,0.6,5.2c0.3,1.3,1.1,2.1,2.3,2.3
					c1.8,0.3,3.7,0.4,5.5-0.1c1.1-0.3,1.7-1.2,1.4-2.2c-0.3-1-1.3-1.5-2.4-1.1c-0.9,0.3-1.9,0.2-2.9,0.3c-0.4,0-0.8-0.1-0.8-0.6
					c-0.2-1.3-0.4-2.6-0.3-4.1c1,0.1,1.8,0.1,2.7,0.1c1.1,0,1.9-0.6,2-1.6c0.1-0.9-0.6-1.7-1.7-1.8c-0.6-0.1-1.2-0.1-1.7-0.1
					c-1.5-0.1-1.4,0-1.3-1.5c0.1-5.3,0.4-10.5,0.8-15.8c0.1-1.6,0.3-3.2,0.5-4.7c0.1-1,0.1-1,1.1-0.9c1.6,0.1,3.1,0.5,4.7,0.8
					c1,0.2,2-0.3,2.2-1.2C230.1,331.1,229.5,330.3,228.5,330z"/>
				<path class="st0" d="M245.6,352.1c2.6-2.8,3.9-6,3-9.8c-0.7-3.1-2.8-5.2-5.5-6.7c-1.9-1-3.9-1.5-6-1.8c-1.7-0.3-3.3-0.2-5,0.2
					c-1.2,0.3-1.7,1.1-1.5,2.3c0.1,0.4,0,0.8,0,1.2c-0.1,1.8-0.2,3.6-0.2,5.5c0,6.3,0,12.6,0.4,18.9c0.1,1,0.1,2.1,0.3,3.1
					c0.1,0.8,0.8,1.3,1.5,1.4c0.7,0.1,1.4-0.4,1.7-1.1c0.3-0.6,0.3-1.2,0.1-1.9c-0.4-1.2-0.3-2.5-0.3-3.9c0.4,0.3,0.7,0.5,0.9,0.7
					c1.7,1.4,3.3,2.8,5,4.2c0.3,0.3,0.7,0.6,1.1,0.7c1.1,0.4,2.2-0.3,2.2-1.5c0-0.7-0.3-1.2-0.8-1.6c-0.7-0.6-1.5-1.2-2.2-1.9
					c-1.2-1.1-2.4-2.1-3.7-3.2c0.7-0.4,1.4-0.5,2-0.7C241.2,355.3,243.7,354.1,245.6,352.1z M234.7,353.8c-0.7,0.2-0.8,0.1-0.8-0.6
					c0-1.7,0-3.4,0-5.1c0-2.1-0.1-4.2,0-6.3c0.1-1.3,0.1-2.6,0.2-3.8c0-0.9,0.1-0.9,0.9-0.9c2.6,0,5.1,0.6,7.3,1.9
					c3.6,2.3,4.4,6.4,1.8,9.8c-1.2,1.5-2.7,2.6-4.4,3.4C238,352.9,236.4,353.4,234.7,353.8z"/>
			</g>
		</g>
	</g>
</g>
</svg>
