<?xml version="1.0" encoding="utf-8"?>
<!-- Generator: Adobe Illustrator 21.1.0, SVG Export Plug-In . SVG Version: 6.00 Build 0)  -->
<svg version="1.1" id="Calque_1" xmlns="http://www.w3.org/2000/svg" xmlns:xlink="http://www.w3.org/1999/xlink" x="0px" y="0px"
	 viewBox="0 0 432 432" style="enable-background:new 0 0 432 432;" xml:space="preserve">
<style type="text/css">
	.st0{fill:#AE3034;}
	.st1{fill:#3E904D;}
	.st2{fill:#F7EB5B;}
	.st3{fill:#221F20;}
	.st4{fill:#BC9A72;}
	.st5{fill:#FFFFFF;}
	.st6{fill:#E9963E;}
	.st7{fill:#EFB156;}
	.st8{fill:#5EB057;}
	.st9{fill:#A27D56;}
	.st10{fill:#BD8346;}
	.st11{fill:#DD658D;}
	.st12{fill:#404041;}
	.st13{fill:#81BF8E;}
	.st14{fill:#ED7E87;}
	.st15{fill:#B0202B;}
	.st16{fill:#BA9453;}
	.st17{fill:#B99352;}
	.st18{fill:#45A49C;}
	.st19{fill:#59B178;}
	.st20{fill:#C9A25F;}
	.st21{fill:#BCBDBF;}
	.st22{fill:#C7345D;}
	.st23{fill:#2E3192;}
	.st24{fill:#8CC63F;}
	.st25{fill:#22B573;}
	.st26{fill:#333333;}
	.st27{fill:#B1A097;}
	.st28{fill:#574B43;}
	.st29{fill:#85328A;}
	.st30{fill:#53A7DB;}
	.st31{fill:#912D61;}
	.st32{fill:#835F41;}
	.st33{fill:#929496;}
	.st34{fill:#808080;}
	.st35{fill:#6F4E2F;}
	.st36{fill:#A6A8AA;}
	.st37{fill:#DF643A;}
	.st38{fill:#98C355;}
	.st39{fill:#D35998;}
	.st40{fill:#6F665A;}
	.st41{fill:#BFB49D;}
	.st42{fill:#AE82B3;}
	.st43{fill:#B3B3B3;}
	.st44{fill:#5E328B;}
	.st45{fill:#DA404D;}
	.st46{fill:#A994C1;}
	.st47{fill:#8B575B;}
	.st48{fill:#C9C0AF;}
	.st49{fill:#A67C52;}
	.st50{fill:#86A391;}
	.st51{fill:#6595A9;}
	.st52{fill:#483E49;}
	.st53{fill:#F6BA00;}
	.st54{fill:#FC8080;}
	.st55{fill:#1A1A1A;}
	.st56{fill:#749FA8;}
	.st57{fill:#ABC337;}
	.st58{fill:#F67E20;}
	.st59{fill:#52A9B2;}
	.st60{fill:#925A8B;}
	.st61{fill:#DD8383;}
	.st62{fill:#929C3B;}
	.st63{fill:#4D4D4D;}
	.st64{fill:#C69C6D;}
	.st65{fill:#DBB753;}
	.st66{fill:#9EB9B4;}
	.st67{fill:#F2F2F2;}
	.st68{fill:#E2C87F;}
	.st69{fill:#E8BDC4;}
	.st70{fill:#D86D29;}
	.st71{fill:#E0CDAD;}
	.st72{fill:#E6E6E6;}
	.st73{fill:#CCD6CE;}
	.st74{fill:#9FD3C7;}
	.st75{fill-rule:evenodd;clip-rule:evenodd;}
	.st76{fill:#E5BE51;}
	.st77{fill:#B3A693;}
	.st78{fill:#717370;}
	.st79{fill:#9FB14D;}
	.st80{fill:#736357;}
	.st81{fill:#51642D;}
	.st82{fill:#743315;}
	.st83{fill:#0071BC;}
	.st84{fill:#9C1B20;}
	.st85{fill:#009245;}
	.st86{fill:#F6E6CC;}
	.st87{fill:#84CBCB;}
	.st88{fill:#7D9B39;}
	.st89{fill:#3C4E5C;}
	.st90{fill:#998675;}
	.st91{fill:#C7B299;}
	.st92{fill:#9B2F10;}
	.st93{fill:#E7A136;}
	.st94{fill:#978E43;}
	.st95{fill:#7D5E18;}
	.st96{fill:#F2C545;}
	.st97{fill:#E07D28;}
	.st98{fill:#E0D2BE;}
	.st99{fill:#C4A18D;}
	.st100{fill:#BCBD84;}
	.st101{fill:#5F645E;}
	.st102{fill:#CAC2C2;}
	.st103{fill:#959736;}
	.st104{fill:#B0D24A;}
	.st105{fill:#754C24;}
	.st106{fill:#603813;}
	.st107{fill:#8C4A33;}
	.st108{fill:#0B493A;}
	.st109{fill:#C17953;}
	.st110{fill:#F7C64D;}
	.st111{fill:#005371;}
	.st112{fill:#D3E2DC;}
	.st113{fill:#3E8A64;}
	.st114{fill:#299798;}
	.st115{fill:#731115;}
	.st116{fill:#4F4544;}
	.st117{fill:#4C6047;}
	.st118{fill:#4C301C;}
	.st119{fill:#867274;}
	.st120{fill:#C13F47;}
	.st121{fill:#BC8AA8;}
	.st122{fill:#634E42;}
	.st123{fill:#E1B8D7;}
	.st124{fill:#6D866B;}
	.st125{fill:#422918;}
	.st126{fill:#925F36;}
	.st127{fill:#1D1D1B;}
	.st128{fill:#00A099;}
	.st129{fill:#F8B133;}
	.st130{fill:#006633;}
	.st131{fill:#683B11;}
	.st132{fill:#B17F49;}
	.st133{fill:#A3897A;}
	.st134{fill:#E488B5;}
	.st135{fill:#93C01F;}
	.st136{fill:#EDE287;}
	.st137{fill:#E9CB9A;}
	.st138{fill:#EAB8CC;}
	.st139{fill:#7E4E24;}
	.st140{fill:#E5332A;}
	.st141{fill:#F29100;}
</style>
<g>
	<g>
		<g>
			<path class="st55" d="M97.1,241.3c-5.3-1.8-10.6-1.9-15.8,0.1c-0.8,0.3-1.7,1.3-1.7,2.1c-0.2,2.8-0.1,5.6-0.1,8.6
				c6.7-1.9,13-1.9,19.6,0c0-2.7-0.1-5.2,0-7.7C99.2,242.7,98.5,241.7,97.1,241.3z"/>
			<path class="st55" d="M140.7,241.5c-5.4-2.3-10.8-2-16.2,0c-0.7,0.3-1.6,1.4-1.7,2.1c-0.2,2.7-0.1,5.4-0.1,8.5
				c6.7-2.1,13.1-1.8,19.7-0.2c0-3,0.1-5.6-0.1-8.1C142.3,243,141.5,241.9,140.7,241.5z"/>
			<path class="st26" d="M197.2,219.4c-7.1-9-18.9-11.5-29-15.4c-5.5-2.1-11-4.9-14.9-9.4c-3.8-4.4-5.6-10.1-9-14.7
				c-3.6-4.9-8.6-7.4-14.4-8.7c-6.7-1.5-13.7-1.9-20.5-1.3c-6.2,0.5-13,1.5-18.5,4.6c-5.2,2.9-8.1,8-10.3,13.4
				c-4.3,10.8-5.5,23.1-12.1,32.8c-3.4,5-9,8.2-11.8,13.7c-2.7,5.3-3.2,11.7-2.2,17.5c0.9,5.3,3.7,9.6,8,12.9
				c4,3.1,8.5,5.3,12.6,8.3c0,0,0.1,0.1,0.1,0.1c-0.1,1.6-0.3,3.2-0.4,4.8c-0.4,5-0.9,9.8-4.6,13.7c-4.8,5.1-5.9,11.3-6.3,18
				c-0.6,8.4-1.4,16.8-2.2,25.3c-0.3,3,0.1,3.9,2.8,5.3c1.4,0.7,2.8,1.2,4.3,1.6c5.7,1.5,11.5,1.8,17.2,0.9c3.3-0.5,6.6-1.5,9.8-2.6
				c1.7-0.6,2.8-1.9,2.8-3.9c0-11.5,0.1-23-0.1-34.5c0-2.7,0.6-5,1.3-7.5c0.8-2.8,1.4-5.7,1.6-8.5c0.1-1.1,0.1-2.3,0.1-3.4h19
				c0,1.5,0,3,0,4.4c0,2.3,0.8,4.5,1.3,6.8c0.5,2.6,1.4,5.2,1.5,7.8c0.2,5.5,0.1,11.1,0.1,16.6c0,5.8,0.1,11.6-0.1,17.4
				c-0.1,2.8,1.1,4.5,3.5,5.3c3,1,6.1,1.9,9.3,2.3c6.9,0.8,13.7,0.6,20.3-2c3.7-1.5,4.2-2.5,3.8-6.4c-0.7-7.2-1.4-14.5-1.9-21.7
				c-1-13.2-1.1-13.1-7.9-23c-1.5-2.1-2.5-4.9-2.8-7.5c-0.2-1.4-0.3-2.8-0.4-4.1c7.4-1.4,14.6-3.2,21.6-6
				c10.9-4.4,21.4-11.3,27.7-21.4C202.4,241.2,204.4,228.6,197.2,219.4z M175.3,266.3c-8.8,4.8-18.5,7.5-28.3,9.3
				c-0.7-7.3-1.3-14.6-1.9-21.9c-0.2-2-1.1-3.2-2.9-3.8c-6.3-2.1-12.7-2-19,0.1c-1.8,0.6-2.7,1.8-2.7,3.9c0,1.7,0,3.4,0,5h-19
				c0-1.7,0-3.4,0-5.1c0-1.9-0.6-3.1-2.3-3.7c-6.6-2.3-13.3-2.4-19.9,0.1c-1.5,0.5-2.1,1.6-2.3,3.2c-0.5,5.7-1.1,11.4-1.6,17.2
				c-4.8-3.3-10.3-5.9-14.3-10.2c-4.1-4.4-5-10.6-4.5-16.4c0.3-3.1,1-6.1,2.5-8.8c1.6-2.7,3.9-4.8,6.2-7c8-7.5,11-17.6,13.9-27.8
				c1.5-5.4,3-10.9,5.7-15.9c3.1-5.9,8-8.9,14.3-10.5c6.4-1.6,13.1-2.2,19.7-1.8c6.2,0.3,13.5,1.1,18.9,4.6c4.7,3,7,8.4,9.5,13.1
				c2.5,4.5,5.5,8.3,9.8,11.2c9,6.2,20.3,7.6,29.7,12.9c4.6,2.6,8.8,6.1,11,10.9c2.4,5.2,2.1,11.2,0.4,16.5
				C194.6,252.5,185.3,260.8,175.3,266.3z"/>
		</g>
		<g>
			<g>
				<ellipse cx="79.7" cy="335.2" rx="15.5" ry="3.9"/>
				<ellipse cx="142.5" cy="335.2" rx="15.5" ry="3.9"/>
			</g>
			<path class="st49" d="M128.7,263.3H91.8c-3.6,0-6.5,2.9-6.5,6.5s2.9,6.5,6.5,6.5h36.9c3.6,0,6.5-2.9,6.5-6.5
				S132.3,263.3,128.7,263.3z"/>
		</g>
	</g>
	<g>
		<path class="st86" d="M373.1,88.8H208.3c-2.7,0-4.9,2.2-4.9,4.9v101.8c0,2.7,2.2,4.9,4.9,4.9h164.8c2.7,0,4.9-2.2,4.9-4.9V93.7
			C378,91,375.8,88.8,373.1,88.8z"/>
		<g>
			<path class="st87" d="M209.1,94.5v100.2h163.2V94.5H209.1z M334,107.9c0.9,0,1.8,0.9,1.7,1.8c0,0.9-0.8,1.6-1.8,1.6
				c-0.9,0-1.6-0.7-1.6-1.7C332.4,108.7,333.2,107.9,334,107.9z M307.9,119.5c0.5-0.6,1-1.2,1.5-1.8c0.3-0.3,0.6-0.5,1-0.7
				c0.9-0.4,1.8-0.8,2.8-0.9c0.1,0,0.1,0,0.2,0c0.2,0,0.3,0.1,0.4,0.3c0.1,0.2,0,0.3-0.2,0.4c-0.1,0-0.1,0.1-0.2,0.1
				c-0.7,0.2-1.3,0.6-2,1.1c-0.9,0.6-1.2,1.4-1.3,2.4c0,0.1,0,0.2,0,0.3c0,0.4-0.4,0.8-0.8,0.8c-0.5,0-1.3-0.5-1.5-1
				C307.6,120.1,307.7,119.8,307.9,119.5z M284.6,130.8c0-0.1-0.1-0.2-0.1-0.3c0-0.2,0-0.5,0.2-0.6c0.2-0.1,0.4-0.1,0.6,0
				c0.6,0.4,1.1,0.9,1.3,1.6c0.2,0.7,0,1.3-0.4,1.9c-0.1,0.2-0.3,0.4-0.5,0.6c-0.2,0.1-0.4,0.3-0.6,0.3c-0.3,0.1-0.6-0.1-0.7-0.4
				c0,0,0-0.1,0-0.1c-0.4-0.6,0.1-1.2,0.6-1.4c0.1-0.1,0.3-0.2,0.5-0.3C285,131.8,284.8,131.4,284.6,130.8z M282,133.1
				c0-0.2,0.1-0.5,0.2-0.7c0-0.1,0.1-0.2,0.1-0.2c0.2-0.2,0.9-0.3,1.1-0.2c0.2,0.1,0.3,0.3,0.3,0.5c0,0.7-0.4,1.2-1.1,1.3
				C282.1,133.8,281.9,133.6,282,133.1z M271.4,161.1c-0.1,0.5-0.3,1-0.5,1.5c-0.2,0.5-0.4,1-0.6,1.5c-0.2,0.4-0.2,0.8-0.1,1.2
				c0,0,0,0.1,0,0.1c0.1,1.1-0.4,1.8-1.5,2c-0.2,0-0.5,0.1-0.7,0.1c-0.3,0.1-0.6,0.3-0.7,0.7c-0.2,0.8-0.6,1.3-1.2,1.8
				c-0.3,0.3-0.7,0.4-1.1,0.5c-0.2,0-0.4,0.1-0.5,0.1c-0.4,0.2-0.8,0.4-0.9,0.9c-0.3,1.1-0.9,1.9-1.8,2.5c-0.2,0.2-0.5,0.3-0.7,0.5
				c-0.4,0.3-0.8,0.6-0.9,1.1c-0.2,0.4-0.3,0.7-0.5,1.1c-0.3,0.6-0.5,1.2-0.9,1.8c-0.5,0.9-0.7,1.8-0.6,2.9c0,0.5,0,0.9,0.1,1.4
				c0,0.1,0,0.2,0,0.3c-0.1,0.4-0.4,0.7-0.8,0.5c-1.3-0.6-2.3-1.4-2.4-2.9c-0.1-1.1,0-2.1,0.2-3.2c0.3-1.3,0.7-2.6,0.9-4
				c0.3-1.4,0.5-2.8,0.4-4.3c-0.1-1.2-0.3-2.3-0.6-3.4c-0.1-0.5-0.2-1-0.4-1.5c-0.3-0.8-0.7-1.5-1.2-2.2c-0.2-0.3-0.5-0.6-0.7-0.9
				c-0.4-0.5-0.6-1-0.8-1.6c-0.1-0.6-0.1-1.1,0.1-1.7c0.3-0.7,0.6-1.4,1-2c0.2-0.2,0.3-0.5,0.4-0.7c0.2-0.4,0.1-0.5-0.2-0.7
				c-0.1-0.1-0.1-0.1-0.2-0.2c-1-0.5-2-1.1-3.2-1.3c-0.5-0.1-1-0.2-1.4-0.3c-0.7-0.1-1.4-0.4-2.1-0.7c-0.6-0.3-1.1-0.7-1.7-1
				c-0.7-0.5-1.5-0.9-2.4-1.1c-0.2,0-0.4-0.1-0.6-0.2c-1.1-0.3-2-1-2.7-1.9c-1-1.3-2-2.6-3.1-3.9c-1-1.3-1.7-2.7-2.3-4.2
				c-0.5-1.6-1.1-3.1-1.8-4.6c-0.7-1.4-1.5-2.7-2.8-3.7c-0.6-0.5-1.1-1-1.6-1.6c-0.4-0.4-0.9-0.8-1.5-0.9c-0.3-0.1-0.6-0.1-0.9-0.1
				c-0.8-0.1-1.6-0.1-2.4-0.2c-0.6,0-1.2,0-1.8,0.3c-0.4,0.2-0.8,0.4-1.3,0.5c-0.3,0.1-0.7,0.3-1,0.3c-1.2,0.2-2.6-0.6-2.3-2.3
				c0-0.3,0.1-0.5-0.1-0.7c-0.5-0.5-0.3-1,0-1.4c0.1-0.1,0.1-0.2,0.2-0.3c0.4-0.3,0.4-0.4,0.2-0.8c-0.1-0.3-0.3-0.7-0.4-1
				c-0.4-0.7,0-1.3,0.6-1.7c0.3-0.2,0.6-0.3,1-0.4c1.6-0.5,3.2-0.5,4.9-0.1c0.8,0.2,1.7,0.4,2.5,0.5c1.6,0.3,3.1,0.2,4.6-0.5
				c1.1-0.5,2.3-0.8,3.5-0.9c0.6,0,1.1-0.3,1.5-0.7c0.4-0.5,0.8-1,1.1-1.5c0.8-1.3,2-2.2,3.5-2.7c0.5-0.2,1-0.3,1.5-0.4
				c1.2-0.3,2.5-0.6,3.7-0.9c0.3-0.1,0.6-0.1,0.9-0.2c0.2-0.1,0.4-0.2,0.4-0.4c0-0.1,0-0.1,0-0.2c0.2-0.8,0.7-1.3,1.5-1.6
				c0.8-0.3,1.6-0.4,2.5-0.4c0.8-0.1,1.6-0.1,2.4-0.3c0.6-0.1,1.2-0.3,1.7-0.5c0.8-0.2,1.6-0.3,2.4,0.1c0.2,0.1,0.5,0.3,0.7,0.4
				c0.3,0.3,0.3,0.6,0.1,0.9c-0.1,0.2-0.2,0.4-0.4,0.5c-0.6,0.7-1.3,1.3-2.1,1.8c-0.6,0.4-1.2,0.8-1.7,1.3c-0.4,0.4-0.7,0.8-0.9,1.3
				c-0.4,0.9-0.2,1.7,0.6,2.3c0.2,0.2,0.5,0.3,0.7,0.4c0.7,0.3,1.3,0.8,1.7,1.5c0.1,0.2,0.2,0.3,0.3,0.5c0.6,0.9,1.3,1.6,2.2,2
				c0.2,0.1,0.5,0.2,0.7,0.4c0.2,0.2,0.4,0.4,0.5,0.6c0.3,0.5,0.2,1-0.2,1.4c-0.3,0.3-0.7,0.4-1.2,0.5c-0.7,0.1-1.3,0-1.9-0.2
				c-0.5-0.2-1-0.3-1.6-0.4c-0.8-0.1-1.6-0.3-2.4-0.5c-0.6-0.1-1.1,0-1.6,0.3c-0.3,0.2-0.7,0.5-1,0.8c-0.4,0.3-0.8,0.6-1.3,0.8
				c-0.9,0.3-1.1,1.2-0.6,2c0.6,0.8,1.4,1.2,2.3,1.5c0.2,0,0.3,0.1,0.5,0.1c0.7,0.1,1.3,0.3,1.9,0.7c0.1,0,0.1,0.1,0.2,0.1
				c0.6,0.3,0.9,0.2,1.1-0.4c0.1-0.2,0.1-0.5,0.2-0.8c0-0.5,0-1.1,0-1.6c0-0.2,0-0.5,0-0.7c0.1-0.8,0.7-1.3,1.5-1.2
				c0.6,0,1.1,0.2,1.6,0.5c0.6,0.4,1.2,0.9,1.7,1.4c0.4,0.4,0.9,0.8,1.3,1.2c0.6,0.5,1.3,0.9,2,1.3c0.2,0.1,0.5,0.3,0.7,0.4
				c0.3,0.2,0.4,0.5,0.5,0.8c0.1,0.5-0.2,1-0.7,1.2c-0.2,0.1-0.5,0.2-0.7,0.3c-0.4,0.2-0.4,0.4-0.1,0.6c0.2,0.1,0.3,0.3,0.5,0.4
				c0.1,0.1,0.3,0.2,0.4,0.3c0.2,0.2,0.2,0.5,0,0.7c-0.1,0.1-0.2,0.2-0.4,0.3c-0.7,0.4-1.5,0.6-2.4,0.4c-0.1,0-0.3,0-0.4-0.1
				c-0.4-0.1-0.8,0.1-1.1,0.4c-0.2,0.2-0.4,0.4-0.6,0.6c-0.5,0.5-1.1,0.9-1.7,1.4c-0.4,0.3-0.6,0.6-0.7,1.1c0,0.2-0.1,0.3-0.1,0.5
				c-0.2,0.9-0.6,1.6-1.3,2.1c-0.2,0.2-0.4,0.3-0.6,0.5c-0.3,0.2-0.4,0.5-0.4,0.9c0.1,0.6-0.1,1.1-0.3,1.6c-0.1,0.1-0.1,0.3-0.2,0.4
				c-0.3,0.5-0.7,0.5-1.1,0.2c-0.3-0.2-0.5-0.5-0.7-0.7c-0.4-0.4-0.9-0.8-1.4-1.2c-1-0.6-2.1-0.6-3,0.2c-0.1,0.1-0.2,0.2-0.3,0.3
				c-0.8,0.8-0.8,1.5-0.1,2.4c0.4,0.5,0.7,0.6,1.3,0.4c0.2-0.1,0.5-0.2,0.7-0.3c0.2-0.1,0.5-0.2,0.7-0.2c0.7-0.1,1.1,0.3,1,1
				c0,0.2-0.1,0.5-0.2,0.7c-0.1,0.2-0.1,0.3-0.2,0.6c0.2,0.1,0.4,0.1,0.6,0.1c0.2,0,0.3,0,0.5,0c0.6,0.1,0.9,0.5,0.9,1.1
				c0,0.2,0,0.3-0.1,0.5c-0.1,0.5,0,0.6,0.5,0.7c0.5,0.2,1.1,0.4,1.6,0.6c0.2,0.1,0.3,0.2,0.5,0.2c0.4,0.2,0.5,0.1,0.8-0.2
				c0.2-0.3,0.5-0.6,0.9-0.8c0.5-0.3,1.1-0.4,1.6-0.2c0.3,0.1,0.6,0.2,0.9,0.3c0.4,0.1,0.8,0.2,1.2,0.3c1,0,1.8,0.4,2.5,1.1
				c0.8,0.8,1.6,1.4,2.6,1.9c0.6,0.3,1.1,0.6,1.5,1.1c1,1.3,2.3,1.9,3.8,2.3c0.2,0.1,0.5,0.1,0.7,0.2
				C271.1,159.2,271.6,160.1,271.4,161.1z M275,122.9c-0.5,0.2-0.9,0.3-1.4,0.5c-0.5,0.2-0.9,0.4-1.2,0.7c-0.5,0.4-1.1,0.8-1.6,1.1
				c-0.6,0.4-1,0.9-1.2,1.6c-0.1,0.4-0.2,0.8-0.4,1.1c-0.5,0.9-1.4,1.2-2.3,0.9c-0.6-0.2-1.1-0.6-1.5-1.1c-0.3-0.5-0.7-1-0.9-1.6
				c-0.4-0.8-0.4-1.6-0.1-2.5c0.1-0.4,0.2-0.7,0.3-1.1c0-0.2,0-0.3-0.2-0.4c-0.7-0.2-1-0.8-1-1.5c0-0.2,0-0.3,0-0.5
				c0-0.2-0.1-0.3-0.3-0.4c-0.4-0.1-0.6-0.4-0.8-0.8c-0.1-0.1-0.2-0.3-0.3-0.4c-0.2-0.4-0.5-0.6-0.9-0.7c-0.4-0.1-0.9-0.3-1.3-0.5
				c-0.6-0.3-1.1-0.5-1.7-0.6c-0.3-0.1-0.7-0.2-1-0.3c-0.2-0.1-0.4-0.2-0.5-0.4c-0.3-0.4-0.2-0.8,0.2-1c0.1-0.1,0.2-0.1,0.3-0.2
				c0.5-0.3,0.8-0.7,0.9-1.2c0.1-0.7,0.6-1.1,1.3-1.3c0.1,0,0.3-0.1,0.4-0.1c0.5-0.1,1-0.3,1.4-0.5c1.2-0.7,2.5-0.9,3.9-1
				c0.2,0,0.4,0,0.6,0c0.6,0,1.2-0.1,1.7-0.4c0.3-0.2,0.6-0.3,1-0.3c1.2-0.1,2.4-0.2,3.6-0.2c1.3,0,2.5,0.1,3.8,0.2
				c0.2,0,0.3,0,0.5,0.1c0.3,0.1,0.5,0.4,0.3,0.8c-0.1,0.2-0.3,0.3-0.4,0.5c-0.1,0.1-0.2,0.2-0.4,0.3c0.5,0.2,1,0.2,1.4,0.1
				c0.9-0.1,1.7-0.2,2.6-0.3c0.2,0,0.4,0,0.6,0c0.3,0.1,0.5,0.4,0.3,0.7c-0.1,0.2-0.2,0.3-0.3,0.4c-0.3,0.3-0.6,0.7-0.9,1
				c-0.3,0.4-0.5,0.9-0.6,1.4c0,0.3-0.1,0.5-0.1,0.8c-0.1,0.5-0.3,1-0.6,1.4c-0.5,0.6-0.6,1.2-0.7,1.9c0,0.4-0.1,0.8-0.2,1.2
				C276.9,121.5,276.2,122.4,275,122.9z M278.2,126c-0.5,0-0.8-0.3-1.1-0.6c-0.1-0.2-0.3-0.3-0.4-0.5c-0.1-0.1-0.2-0.3-0.1-0.5
				c0.1-0.2,0.2-0.2,0.4-0.2c0.1,0,0.2,0,0.3,0c0.5,0.2,1.1,0.1,1.6-0.1c0.3-0.1,0.6-0.2,0.9-0.2c0.3-0.1,0.6,0,0.7,0.3
				c0.2,0.3,0.1,0.6-0.1,0.9c-0.2,0.3-0.6,0.5-0.9,0.6c-0.3,0.1-0.6,0.2-0.9,0.2C278.4,126,278.3,126,278.2,126z M306.5,163.9
				c0,0.1-0.1,0.3-0.1,0.4c-0.3,0.8-0.6,1.5-0.7,2.3c0,0.3-0.2,0.6-0.3,0.8c-0.2,0.3-0.5,0.6-0.9,0.5c-0.4-0.1-0.7-0.4-0.8-0.8
				c0-0.1,0-0.3-0.1-0.5c0.1-0.2,0.1-0.6,0.3-0.9c0.2-0.3,0.2-0.7,0.2-1c-0.1-0.6,0.2-1,0.6-1.4c0.3-0.3,0.5-0.6,0.8-0.9
				c0.1-0.1,0.2-0.3,0.4-0.3c0.2-0.1,0.5,0,0.6,0.3C306.6,163,306.7,163.5,306.5,163.9z M349.2,169.5c-0.1,0.8-0.2,1.5-0.4,2.3
				c-0.1,0.6-0.3,1.1-0.6,1.5c-0.4,0.6-0.9,0.9-1.6,1c-1.6,0.2-2.9-0.4-4-1.3c-0.2-0.1-0.3-0.3-0.5-0.4c-0.9-0.7-1.9-1.1-3.1-1
				c-0.8,0.1-1.7,0.2-2.5,0.3c-0.4,0-0.7,0.1-1,0.3c-0.3,0.1-0.6,0.3-0.9,0.4c-0.8,0.3-1.9-0.4-1.8-1.3c0.1-0.7-0.1-1.4-0.3-2.1
				c-0.1-0.3-0.2-0.6-0.2-0.8c-0.2-0.8,0.1-1.5,0.7-2c0.3-0.2,0.7-0.4,1-0.6c0.6-0.3,1.1-0.7,1.5-1.1c0.3-0.3,0.6-0.7,1-1
				c0.4-0.4,1-0.6,1.5-0.5c0.4,0,0.6-0.1,0.8-0.4c0.1-0.1,0.1-0.2,0.2-0.3c0.6-0.8,1.6-0.9,2.4-0.2c0.5,0.4,1,0.9,1.4,1.3
				c0.1,0.1,0.3,0.2,0.5,0.3c0.1-0.2,0.1-0.4,0.2-0.6c0.1-0.3,0.2-0.6,0.4-0.9c0.3-0.5,0.7-0.5,1.2-0.1c0.1,0.1,0.3,0.3,0.4,0.4
				c0.3,0.3,0.6,0.6,0.8,1c0.2,0.3,0.5,0.6,0.7,1c0.3,0.7,0.8,1.3,1.3,1.9C349.1,167.5,349.4,168.4,349.2,169.5z M345.9,138.2
				c-0.2,0.2-0.4,0.3-0.6,0.4c-0.3,0.2-0.4,0.3-0.4,0.7c0,0.9-0.5,1.5-1.3,1.9c-0.8,0.4-1.5,0.8-2.3,1.3c-0.2,0.1-0.3,0.2-0.4,0.3
				c-0.1,0.1-0.3,0.2-0.4,0.2c-0.3,0-0.5-0.1-0.6-0.3c-0.1-0.2,0-0.4,0.1-0.6c0.2-0.3,0.4-0.5,0.7-0.6c1.4-0.5,2.2-1.6,2.8-2.9
				c0.3-0.6,0.4-1.4,0.5-2c0-0.2,0.1-0.3,0.1-0.4c0.2-0.4,0.7-0.4,0.9,0c0.1,0.2,0.1,0.4,0.2,0.6c0.1,0.2,0.2,0.4,0.5,0.4
				C346.1,137.4,346.2,137.8,345.9,138.2z M346.4,159.5c0.3,0.3,0.5,0.5,0.8,0.8c0.2,0.2,0.3,0.4,0.4,0.6c0.2,0.5-0.2,0.9-0.8,0.8
				c-0.2,0-0.3-0.1-0.4-0.2c-0.7-0.5-1.5-0.7-2.4-0.6c-0.3,0-0.6,0-0.9,0.1c-0.6,0-1-0.2-1.3-0.7c-0.1-0.2-0.3-0.4-0.4-0.7
				c-0.2-0.4-0.5-0.7-0.9-0.8c-0.2-0.1-0.4-0.2-0.5-0.3c-0.2-0.2-0.2-0.4-0.1-0.6c0.1-0.2,0.3-0.4,0.5-0.4c0.5,0,1,0,1.5,0.1
				c0.7,0.1,1.4,0.3,2.2,0.3c0.6,0,1.1,0.3,1.5,0.7C345.9,158.9,346.2,159.2,346.4,159.5z M357.6,175.5c0,0-0.1,0.1-0.1,0.1
				c0,0.6-0.4,0.9-0.7,1.3c-0.2,0.2-0.4,0.5-0.6,0.7c-0.2,0.3-0.5,0.5-0.9,0.5c-0.2,0-0.4-0.1-0.6-0.3c-0.1-0.2-0.1-0.5,0-0.7
				c0.1-0.1,0.1-0.2,0.2-0.3c0.7-0.4,1.2-1,1.7-1.6c0.2-0.2,0.4-0.2,0.6-0.2C357.6,175.1,357.7,175.3,357.6,175.5z M359,175.2
				c-0.5,0.2-1.1-0.2-1.1-0.8c0-0.4,0-0.8,0-1.1c0-0.1,0-0.2,0-0.3c0.1-0.4,0.6-0.5,0.9-0.2c0.1,0.1,0.1,0.2,0.1,0.3
				c0.1,0.2,0.2,0.4,0.5,0.4c0.3,0.1,0.5,0.3,0.5,0.6C359.9,174.5,359.5,175.1,359,175.2z M364.1,125.9c-0.3,0.1-0.5,0.1-0.8,0.1
				c-0.7,0-1.3,0-2,0c-0.8-0.1-1.5,0.2-2,0.8c-0.2,0.2-0.3,0.4-0.5,0.6c-0.5,0.7-1.2,1.2-1.9,1.5c-0.7,0.3-1.5,0.7-2.2,1
				c-0.7,0.3-1.1,0.7-1.5,1.3c-0.2,0.4-0.5,0.9-0.7,1.3c-0.2,0.3-0.3,0.5-0.5,0.7c-0.4,0.4-0.9,0.3-1.2-0.2
				c-0.2-0.4-0.2-0.9-0.1-1.4c0.3-1.2,0.8-2.1,1.7-2.9c0.2-0.1,0.3-0.3,0.5-0.5c-0.2-0.2-0.5-0.2-0.7-0.2c-0.8,0-1.5,0.1-2.3,0.4
				c-1.1,0.4-2.1,0.8-3.2,1.1c-0.4,0.1-0.7,0.3-1.1,0.3c-0.8,0.2-1.5,0.6-2.2,1c-0.6,0.4-0.7,0.9-0.3,1.5c0.1,0.2,0.2,0.3,0.3,0.5
				c0.1,0.2,0.2,0.3,0.3,0.5c0.6,0.9,0.5,1.6-0.2,2.4c-0.4,0.5-0.9,0.8-1.4,1.1c-0.9,0.5-1.6,1.1-2.3,1.8c-0.1,0.1-0.3,0.3-0.4,0.4
				c-0.7,0.7-1.6,1-2.6,1c-0.3,0-0.7,0-1,0c-0.2,0-0.3,0-0.5,0.1c-0.2,0.1-0.3,0.2-0.2,0.4c0.1,0.2,0.2,0.4,0.3,0.6
				c0.2,0.3,0.4,0.6,0.7,0.8c1.1,1.1,0.7,3.3-0.2,4c-0.6,0.5-1.1,1-1.7,1.4c-0.9,0.7-1.8,1.1-2.9,1.2c-0.3,0-0.6,0.1-0.9,0.3
				c-0.5,0.4-0.6,0.9-0.5,1.5c0,0.3,0.1,0.5,0.2,0.8c0.3,0.8,0.1,1.5-0.3,2.2c-0.1,0.1-0.2,0.3-0.3,0.4c-0.4,0.5-0.7,1.1-0.9,1.7
				c-0.1,0.3-0.3,0.6-0.4,0.9c0.2,0.5,0.4,1,0.8,1.4c0.2,0.2,0.2,0.4,0.3,0.6c0,0.2,0.1,0.3,0.3,0.4c0.6,0.3,1.1,0.6,1.7,0.9
				c0.2,0.1,0.4,0.1,0.5,0.1c0.5-0.1,1.1,0,1.6,0.2c1.1,0.2,2.1,0.3,3.2,0.3c0.2,0,0.4-0.1,0.5,0.2c0,0.2-0.1,0.4-0.4,0.5
				c-0.5,0.1-0.9,0.3-1.4,0.1c-0.2,0-0.3,0-0.5,0c-0.8,0-1.7-0.1-2.5-0.1c-0.4,0-0.7-0.2-1.1-0.3c-0.4-0.2-0.8-0.3-1.2-0.4
				c-0.1,0-0.2,0-0.3-0.1c-0.5-0.2-0.9-0.5-1.3-0.8c-0.4-0.3-0.8-0.7-1.1-1.1c-0.1-0.2-0.3-0.4-0.5-0.6c-0.3-0.4-0.7-0.8-1-1.2
				c-0.2-0.3-0.5-0.5-0.7-0.8c-0.1-0.1-0.2-0.2-0.3-0.4c-0.2-0.3,0.1-0.6,0.4-0.6c0.2,0,0.3,0.1,0.4,0.1c0.3,0.1,0.7,0.3,1,0.4
				c0.1,0,0.2,0,0.3,0c-0.1-0.6-0.2-1.2-0.3-1.8c-0.1-0.7-0.3-1.4-0.7-2c-0.2-0.3-0.5-0.6-0.8-0.9c-0.7-0.5-1.3-1-1.9-1.6
				c-0.5-0.5-0.8-0.5-1.4-0.2c-0.7,0.4-1.3,1-1.7,1.7c-0.3,0.6-0.6,1.2-0.9,1.8c-0.1,0.3-0.3,0.6-0.4,0.8c-0.1,0.2-0.3,0.4-0.4,0.5
				c-0.5,0.4-1.1,0.4-1.5,0c-0.2-0.2-0.4-0.5-0.6-0.7c-0.2-0.4-0.3-0.8-0.5-1.2c-0.3-0.6-0.6-1.3-0.9-1.9c-0.3-0.7-0.7-1.3-1-2
				c-0.4-0.8-0.9-1.4-1.8-1.6c-1-0.3-2-0.7-3-0.9c-0.4-0.1-0.9-0.1-1.3-0.2c-0.1,0-0.2,0-0.3,0c0,0.3,0.1,0.5,0.3,0.6
				c0.2,0.2,0.5,0.4,0.8,0.6c0.2,0.1,0.4,0.2,0.6,0.4c0.3,0.2,0.5,0.6,0.5,1c0,0.8-0.3,1.6-0.9,2.2c-0.7,0.7-1.6,1.1-2.5,1.3
				c-0.8,0.2-1.5-0.1-2.2-0.6c-0.6-0.5-0.9-1.1-1.2-1.7c-0.2-0.6-0.5-1.2-0.8-1.8c-0.1-0.2-0.2-0.4-0.4-0.6
				c-0.1-0.1-0.2-0.2-0.3-0.3c0,0-0.1,0-0.1,0.1c0,0.2,0.1,0.4,0.1,0.6c0.1,0.3,0.3,0.7,0.4,1c0.2,0.6,0.5,1.3,0.7,1.9
				c0.1,0.2,0.1,0.4,0.2,0.5c0.3,0.8,0.8,1.3,1.7,1.5c0.3,0.1,0.6,0.2,0.9,0.3c0.2,0.1,0.5,0.2,0.7,0.3c0.4,0.2,0.5,0.6,0.4,1
				c-0.1,0.2-0.1,0.4-0.2,0.6c-0.2,0.3-0.3,0.6-0.6,0.9c-0.6,0.7-1,1.5-1.5,2.3c-0.3,0.6-0.7,1.3-1.2,1.7c-0.9,0.9-1.1,1.9-0.9,3.1
				c0.1,0.5,0.2,0.9,0.2,1.4c0.1,0.9-0.1,1.7-0.5,2.5c-0.3,0.7-0.7,1.4-1.1,2c-0.5,0.7-1,1.4-1.5,2.1c-0.6,0.8-1.3,1.4-2.1,2
				c-0.9,0.6-1.8,0.9-2.9,1c-1.1,0.1-1.8-0.4-2-1.5c-0.1-0.5-0.1-1.1-0.2-1.6c-0.1-1.1-0.3-2.2-0.6-3.3c-0.3-1.1-0.3-2.2-0.2-3.2
				c0.1-1.1,0-2.1-0.7-3.1c-0.5-0.7-0.9-1.5-1-2.3c-0.1-0.4-0.1-0.8-0.2-1.1c-0.1-0.5-0.4-0.8-0.8-0.9c-0.2-0.1-0.4-0.1-0.6-0.1
				c-0.9,0-1.9-0.2-2.7-0.5c-0.9-0.3-1.9-0.4-2.9-0.5c-0.3,0-0.6-0.1-0.9-0.1c-1.3-0.2-2.2-1.1-2.4-2.5c0-0.1,0-0.1,0-0.2
				c0-1.3-0.1-2.5-0.1-3.8c0-1,0.5-1.8,1.2-2.4c0.4-0.3,0.7-0.6,1.1-0.9c0.8-0.6,1.6-1.3,2.2-2.2c0.6-0.9,1.4-1.4,2.5-1.7
				c0.6-0.1,1.3-0.4,1.9-0.6c0.7-0.2,1.4-0.2,2.1,0.1c0.6,0.2,0.9,0.6,1,1.2c0,0.1,0,0.1,0,0.2c0,0.4,0.2,0.7,0.6,0.8
				c0.9,0.4,1.8,0.5,2.7,0.2c0.3-0.1,0.6-0.2,0.9-0.3c0.4-0.2,0.9-0.2,1.4-0.2c0.8,0,1.5,0,2.3,0c0.4,0,0.7-0.2,0.8-0.6
				c-0.3-0.2-0.6-0.3-0.9-0.4c-0.4-0.1-0.8-0.2-1.3-0.3c-0.5-0.1-0.8-0.3-1.1-0.7c-0.2-0.3-0.4-0.6-0.6-0.9
				c-0.1,0.1-0.2,0.3-0.3,0.4c-0.4,0.5-0.8,0.5-1.2,0c-0.4-0.5-0.7-1-0.9-1.5c-0.2-0.4-0.4-0.6-0.9-0.8c-0.3-0.1-0.7-0.3-1.1-0.5
				c0.1,0.4,0.3,0.6,0.5,0.8c0.4,0.3,0.8,0.7,1.2,0.9c0.4,0.2,0.4,0.5,0.1,0.8c-0.3,0.3-0.5,0.5-0.5,0.9c0,0.1-0.1,0.2-0.1,0.3
				c-0.1,0.2-0.3,0.3-0.5,0.2c-0.2,0-0.4-0.2-0.4-0.4c0-0.2-0.1-0.3-0.1-0.5c0-0.2,0-0.5,0-0.7c0-0.3-0.1-0.6-0.4-0.8
				c-0.4-0.3-0.9-0.5-1.3-0.8c-0.2-0.1-0.3-0.1-0.4,0c-0.3,0.2-0.6,0.4-0.9,0.6c-0.3,0.2-0.6,0.4-0.9,0.6c-0.7,0.5-1.4,0.7-2.2,0.8
				c-0.5,0-0.9,0.2-1.4,0.5c-0.3,0.2-0.5,0.3-0.8,0.4c-0.5,0.2-1,0-1.2-0.5c-0.3-0.5-0.4-1.1-0.3-1.7c0.1-0.5,0.3-0.8,0.8-1
				c0.5-0.1,0.9-0.2,1.4-0.2c0.4-0.1,0.5-0.1,0.5-0.5c0-0.3,0.1-0.6,0.1-0.9c0-0.5,0.2-1,0.6-1.4c0.6-0.5,1.1-1,1.7-1.5
				c0.8-0.6,1.7-1,2.7-1c0.4,0,0.8-0.1,1.2-0.3c0.7-0.3,1.5-0.5,2.3-0.5c0.6,0,1.1-0.2,1.5-0.8c0.5-0.7,1-1.4,1.6-1.9
				c0.1-0.1,0.2-0.3,0.3-0.5c0.1-0.4-0.1-0.5-0.4-0.7c0,0-0.1,0-0.1,0c-0.4-0.1-0.8-0.2-1.1-0.6c-0.1,0.1-0.2,0.2-0.2,0.3
				c-0.2,0.4-0.3,0.9-0.5,1.3c-0.2,0.6-0.5,1.1-1,1.5c-0.9,0.8-2,0.6-2.5-0.5c-0.1-0.3-0.2-0.6-0.3-0.9c-0.1-0.4-0.3-0.7-0.6-0.9
				c-0.6-0.4-0.7-0.9-0.6-1.6c0.1-0.7,0.4-1.3,0.9-1.8c0.4-0.4,0.9-0.8,1.4-1.1c1.1-0.5,2.2-1,3.3-1.5c1-0.4,1.9-0.4,3-0.2
				c0.4,0.1,0.8,0,1.2,0c0.6,0,1.3-0.1,1.9,0c0.5,0,0.9,0.2,1.2,0.5c0.4,0.3,0.4,0.7,0.1,1.1c-0.1,0.2-0.2,0.3-0.3,0.5
				c0.5,0.3,1,0.5,1.6,0.3c0.6-0.3,1.1-0.5,1.7-0.8c1.2-0.7,2.5-0.9,3.8-0.7c0.6,0.1,1-0.1,1.3-0.6c0.3-0.5,0.5-0.6,1.1-0.4
				c0.5,0.2,1,0.4,1.5,0.6c0.4,0.2,0.6,0.2,0.9-0.2c0.1-0.2,0.2-0.3,0.3-0.5c0.1-0.2,0.2-0.5,0.3-0.7c0.2-0.2,0.4-0.4,0.6-0.6
				c0.5-0.3,1.1-0.1,1.4,0.5c0.1,0.2,0.1,0.4,0.2,0.7c0,0.2,0.1,0.4,0.1,0.7c0.2-0.2,0.3-0.3,0.4-0.4c0.4-0.5,0.9-1,1.4-1.4
				c0.2-0.2,0.4-0.4,0.5-0.6c0.6-1.1,1.5-1.8,2.7-2.2c0.6-0.2,1.2-0.4,1.9-0.7c0.7-0.2,1.3-0.5,1.9-0.9c0.1-0.1,0.3-0.2,0.4-0.3
				c0.7-0.4,1.4-0.5,2.2-0.2c0.5,0.2,1.1,0.2,1.6,0.3c0.5,0.1,1.1,0.2,1.6,0.4c0.8,0.3,0.9,0.8,0.6,1.5c-0.1,0.2-0.2,0.4-0.3,0.6
				c0.2,0.2,0.4,0.2,0.6,0.2c0.9,0,1.8,0,2.7,0c1.2-0.1,2.3,0.2,3.3,1c0.4,0.3,0.9,0.4,1.4,0.4c0.5-0.1,1-0.1,1.5-0.2
				c0.7-0.1,1.4-0.4,2-0.9c0.3-0.2,0.5-0.4,0.8-0.6c0.7-0.5,1.2-0.4,1.8,0.1c0.3,0.2,0.5,0.5,0.8,0.7c0.3,0.2,0.5,0.5,0.8,0.6
				c1.7,0.7,3.5,1.3,5.3,1.7c0.7,0.1,1.5,0.2,2.2,0.2c0.4,0,0.9,0,1.3,0c0.6,0,1.2,0.1,1.7,0.4c0.3,0.1,0.6,0.3,0.9,0.5
				c0.9,0.5,1.9,0.8,3,1c0.6,0.1,1.3,0.3,1.9,0.5c0.4,0.1,0.7,0.4,1,0.8C365,125.2,364.8,125.7,364.1,125.9z M334.9,158.9
				c0.2-0.4,0.3-0.8,0.4-1.3c0-0.2,0.2-0.5,0.3-0.7c0.2-0.2,0.5-0.4,0.8-0.6c0.2-0.1,0.4-0.1,0.5,0.1c0.1,0.2,0.1,0.3-0.1,0.5
				c-0.3,0.2-0.2,0.6-0.3,0.9c0,0.2,0,0.4,0,0.6c-0.1,0.6-0.4,1-1,1.2c-0.1,0-0.1,0-0.2,0c-0.4,0-0.6-0.3-0.6-0.6
				C334.8,159.1,334.8,159,334.9,158.9z M334.3,158.2c-0.4,0.3-0.8,0.7-1.4,0.7c-0.4,0-0.9,0-1.3-0.1c-0.3,0-0.4-0.2-0.5-0.5
				c-0.2-0.4-0.4-0.7-0.3-1.1c-0.1-0.3,0-0.6,0.3-0.8c0.5-0.5,1-1,1.6-1.4c0.4-0.3,0.9-0.5,1.3-0.7c0.1-0.1,0.2-0.1,0.4-0.1
				c0.5-0.1,0.8,0.2,0.8,0.7c0,0.1,0,0.2,0,0.3c-0.1,0.6-0.1,1.2-0.2,1.8C334.9,157.5,334.7,157.9,334.3,158.2z"/>
			<path class="st87" d="M307.3,136.4c-0.3,0.1-0.6,0.2-0.9,0.3c-0.5,0.2-0.7,0.5-0.5,1c0.2,0.7,0.3,1.3,0.3,2c0,0.6,0.4,1,0.9,1.2
				c0.2,0.1,0.4,0,0.5-0.3c0-0.2,0-0.3-0.1-0.5c-0.2-0.6-0.1-1.2,0.1-1.9c0.1-0.3,0.2-0.5,0.3-0.8c0.1-0.2,0.1-0.4,0.1-0.5
				C308,136.5,307.8,136.3,307.3,136.4z"/>
			<path class="st87" d="M302,137.9c-0.2-0.1-0.4-0.1-0.5-0.1c-0.6-0.1-1.1-0.3-1.5-0.7c-0.3-0.3-0.6-0.4-0.9-0.5
				c-0.1,0-0.3-0.1-0.4,0.1c-0.2,0.3-0.5,0.6-0.6,0.9c-0.3,0.5-0.1,0.8,0.5,0.7c0.7-0.1,1.3,0,1.9,0.2c0.4,0.1,0.9,0.2,1.3,0.3
				c0,0,0,0,0,0c0.1,0,0.2,0,0.3,0c0.3,0,0.4-0.3,0.3-0.5C302.2,138,302.1,137.9,302,137.9z"/>
		</g>
	</g>
	<g>
		<path d="M273.5,264.2c-2.3-5.6-7.7-9.5-14.1-9.5c-6.3,0-11.7,3.9-14,9.4c-15.7,5.7-26.9,20.7-26.9,38.3
			c0,22.5,18.3,40.8,40.8,40.8c22.5,0,40.8-18.3,40.8-40.8C300.1,284.9,289.1,270,273.5,264.2z M259.5,258.4c3.6,0,6.9,1.7,9,4.3
			c-2.9-0.7-6-1-9.1-1c-3,0-5.9,0.3-8.8,1C252.7,260,255.9,258.4,259.5,258.4z"/>
		<path class="st49" d="M282,315.5c0.3-0.4,0.5-0.8,0.7-1.3l5.9,3.4c2.4-4.5,3.8-9.6,4-15h-6.9c0-0.2,0-0.4,0-0.5c0-0.3,0-0.6,0-0.9
			h6.9c-0.1-5.5-1.6-10.7-4.1-15.2l-6,3.5c-0.2-0.4-0.5-0.9-0.7-1.3l6-3.5c-2.7-4.5-6.5-8.2-11-11l-3.5,6c-0.4-0.3-0.8-0.5-1.3-0.7
			l3.5-6c-4.5-2.4-9.6-3.9-15-4v6.9c-0.3,0-0.6,0-1,0c-0.2,0-0.3,0-0.5,0v-6.9c-5.4,0.1-10.4,1.5-14.8,3.9l3.4,5.8
			c-0.4,0.2-0.9,0.5-1.3,0.7l-3.4-5.8c-4.6,2.7-8.4,6.5-11.2,11.1l5.7,3.3c-0.3,0.4-0.5,0.8-0.8,1.3l-5.7-3.3
			c-2.5,4.5-4,9.7-4.1,15.2h6.4c0,0.3,0,0.6,0,0.9c0,0.2,0,0.4,0,0.5h-6.4c0.1,5.4,1.5,10.5,4,15l5.5-3.2c0.2,0.4,0.5,0.9,0.7,1.3
			l-5.5,3.2c2.7,4.5,6.5,8.4,11,11.1l3.2-5.5c0.4,0.3,0.8,0.5,1.3,0.7l-3.2,5.5c4.5,2.5,9.7,3.9,15.1,4.1v-6.5c0.2,0,0.3,0,0.5,0
			c0.3,0,0.7,0,1,0v6.5c5.6-0.1,10.8-1.6,15.3-4.2l-3.3-5.7c0.4-0.2,0.8-0.5,1.3-0.8l3.3,5.7c4.4-2.8,8.2-6.5,10.9-11L282,315.5z"/>
		<path class="st84" d="M265.3,283.1c-1.9,4.6-5.4,13.3-6.6,16.1c0,0.1-0.1,0.1-0.1,0.1c-1.1,0.4-2,1.5-2,2.7c0,0.7,0.3,1.3,0.7,1.8
			c0,0.1,0.1,0.1,0,0.2l-4.3,16.5c-0.1,0.3,0.3,0.4,0.4,0.2c1.9-4.5,5.4-12.8,6.7-15.8c0-0.1,0.1-0.1,0.1-0.1c1.2-0.4,2-1.5,2-2.8
			c0-0.7-0.3-1.4-0.7-1.9c0-0.1-0.1-0.1-0.1-0.2l4.1-16.7C265.8,283,265.4,282.8,265.3,283.1z"/>
	</g>
</g>
</svg>
