<?xml version="1.0" encoding="utf-8"?>
<!-- Generator: Adobe Illustrator 23.0.3, SVG Export Plug-In . SVG Version: 6.00 Build 0)  -->
<svg version="1.1" id="Layer_1" xmlns="http://www.w3.org/2000/svg" xmlns:xlink="http://www.w3.org/1999/xlink" x="0px" y="0px"
	 viewBox="0 0 595.28 595.28" style="enable-background:new 0 0 595.28 595.28;" xml:space="preserve">
<style type="text/css">
	.st0{fill:#182A4C;}
	.st1{fill:#4A3841;}
	.st2{fill:#002F1F;}
</style>
<path class="st1" d="M464.96,130.31c-44.69-44.69-104.12-69.31-167.32-69.31c-63.21,0-122.63,24.61-167.33,69.31
	c-44.69,44.69-69.31,104.12-69.31,167.33s24.61,122.63,69.31,167.33c44.69,44.69,104.12,69.31,167.33,69.31
	c63.21,0,122.63-24.61,167.32-69.31c44.69-44.69,69.31-104.12,69.31-167.33S509.66,175.01,464.96,130.31z M75.1,297.64
	c0-122.71,99.83-222.54,222.54-222.54c116.53,0,212.42,90.04,221.78,204.19c-5.27-4.86-10.97-10.01-15.17-13.51
	c-7.1-5.92-17.67-5.11-29.9-4.18c-10.35,0.79-22.08,1.69-31.2-1.96c-22.98-9.19-41.77-21.97-57.44-39.06
	c-13.28-14.48-21.31-14.27-31.21-12.4c-3.99,0.76-7.76,1.47-13.36,0.25c-6.64-1.44-15.28-7.43-23.64-13.22
	c-13.96-9.66-28.39-19.66-42.26-15.88c-10.96,2.99-29.59,22.01-56.76,50.68c-12.7,13.41-30.01,31.67-35.08,34.18
	c-5.33,0.38-13.73,0.58-21.86,0.77c-8.55,0.21-17.39,0.42-23.34,0.84c-3.11,0.22-9.58,0.68-43.02,28.62
	c-7.23,6.04-14.2,12.09-19.64,16.9C75.26,306.81,75.1,302.24,75.1,297.64z M297.64,520.18c-19.92,0-39.23-2.65-57.61-7.58h115.23
	C336.87,517.53,317.56,520.18,297.64,520.18z M385.62,502.03H209.66c-6.42-2.77-12.69-5.84-18.78-9.18
	c38.42-0.16,136.16-0.02,213.23,0.16C398.11,496.29,391.94,499.3,385.62,502.03z M421.43,482.48
	c-203.79-0.51-240.34-0.2-247.53,0.04c-3.63-2.44-7.18-4.99-10.66-7.63h268.8C428.58,477.52,425.05,480.05,421.43,482.48z
	 M339.77,460.79h-22.28c17.86-14.55,42.01-91.62,42.01-91.62c-60.01,12.68-123.95-1.43-141.63-4.4c19.3,1.08,65.04,3.29,97.51,1.99
	c24.66-0.99,44.17-4.49,56.44-7.34L339.77,460.79z M384.18,367.08l40.07,93.72h-69.7L384.18,367.08z M516.86,335.95
	c-1.48,8.47-3.43,16.78-5.84,24.89c-0.31-0.27-0.62-0.54-0.95-0.8c-6.98-5.49-10.97-17.95-6.48-19.95
	c4.49-1.99,2.49-6.48-4.49-10.47c-6.98-3.99-10.97-18.45-10.97-18.45c-2.49-10.97-6.48-10.97-8.98,0c0,0-3.99,14.46-10.97,18.45
	c-6.98,3.99-8.98,8.48-4.49,10.47c4.49,1.99,0.5,14.46-6.48,19.95s-8.48,12.97-1.5,13.46c6.98,0.5,4.99,13.96-2.99,17.45
	c-7.98,3.49-14.46,14.96-5.98,17.45c8.48,2.49,16.95,4.49,10.47,11.47c-6.48,6.98-15.46,14.46-8.98,15.96
	c6.5,1.5,18.53-6.55,29.02-6.99c0,0,0,0,0,0c-8.45,11.54-17.98,22.23-28.45,31.94h-9.23l-20.56-48.07v-7.87
	c10.91,1.38,18.28,5.68,22.12,4.8c4.79-1.11-1.84-6.63-6.63-11.79c-4.79-5.16,1.47-6.63,7.74-8.48c6.27-1.84,1.47-10.32-4.42-12.9
	c-5.9-2.58-7.37-12.53-2.21-12.9c5.16-0.37,4.05-5.9-1.11-9.95c-5.16-4.05-8.11-13.27-4.79-14.74c3.32-1.47,1.84-4.79-3.32-7.74
	c-5.16-2.95-8.11-13.64-8.11-13.64c-1.84-8.11-4.79-8.11-6.63,0c0,0-2.95,10.69-8.11,13.64c-5.16,2.95-6.63,6.27-3.32,7.74
	c3.32,1.47,0.37,10.69-4.79,14.74c-0.44,0.35-0.84,0.71-1.22,1.07l-3.71-8.67l-2.58-6.01l-6.19,2.11
	c-0.16,0.06-10.58,3.56-28.28,6.56c-0.68-0.7-1.36-1.4-2.01-2.1c-4.84-5.21,1.49-6.7,7.81-8.55c6.32-1.86,1.49-10.41-4.46-13.02
	c-5.95-2.6-7.44-12.65-2.23-13.02c5.21-0.37,4.09-5.95-1.12-10.04c-5.21-4.09-8.18-13.39-4.84-14.88c3.35-1.49,1.86-4.84-3.35-7.81
	c-5.21-2.98-8.18-13.76-8.18-13.76c-1.86-8.18-4.84-8.18-6.7,0c0,0-2.98,10.79-8.18,13.76c-5.21,2.98-6.7,6.32-3.35,7.81
	c3.35,1.49,0.37,10.79-4.84,14.88c-5.21,4.09-6.32,9.67-1.12,10.04c5.21,0.37,3.72,10.41-2.23,13.02
	c-5.95,2.6-10.79,11.16-4.46,13.02c6.32,1.86,12.65,3.35,7.81,8.55c-2.01,2.17-4.35,4.4-6.04,6.35c-7.63,0.16-15.74,0.16-23.91,0.06
	c-1.97-3.72,3.4-5.03,8.79-6.61c6.12-1.8,1.44-10.07-4.32-12.59s-7.2-12.23-2.16-12.59c5.04-0.36,3.96-5.76-1.08-9.71
	c-5.04-3.96-7.91-12.95-4.68-14.39c3.24-1.44,1.8-4.68-3.24-7.55c-5.04-2.88-7.91-13.31-7.91-13.31c-1.8-7.91-4.68-7.91-6.48,0
	c0,0-2.88,10.43-7.91,13.31c-5.04,2.88-6.48,6.12-3.24,7.55c3.24,1.44,0.36,10.43-4.68,14.39c-5.04,3.96-6.12,9.35-1.08,9.71
	c5.04,0.36,3.6,10.07-2.16,12.59c-5.76,2.52-10.43,10.79-4.32,12.59c4.9,1.44,9.78,2.65,9.15,5.66
	c-20.94-0.83-36.82-1.86-37.13-1.88l-4.4-0.29l-8.29,14.5c-2.66-3.72-2.59-9.27,1.15-9.53c4.91-0.35,3.85-5.61-1.05-9.46
	c-4.91-3.85-7.71-12.62-4.56-14.02c3.15-1.4,1.75-4.56-3.15-7.36c-4.91-2.8-7.71-12.97-7.71-12.97c-1.75-7.71-4.56-7.71-6.31,0
	c0,0-2.8,10.16-7.71,12.97c-4.91,2.8-6.31,5.96-3.15,7.36c3.15,1.4,0.35,10.16-4.56,14.02c-4.91,3.85-5.96,9.11-1.05,9.46
	c4.91,0.35,3.5,9.81-2.1,12.26c-5.61,2.45-10.16,10.51-4.2,12.26c5.96,1.75,11.91,3.15,7.36,8.06c-4.56,4.91-10.86,10.16-6.31,11.21
	c4.56,1.05,12.96-4.56,20.32-4.91c0.24-0.01,0.47-0.01,0.7-0.02v9.73l-31.15,54.52c-7.43-7.15-14.37-14.8-20.76-22.91
	c11.82,2.36,20,6.66,24.53,5.61c6.5-1.5-2.5-9-9-16s2-9,10.5-11.5s2-14-6-17.5s-10-17-3-17.5s5.5-8-1.5-13.5s-11-18-6.5-20
	c4.5-2,2.5-6.5-4.5-10.5c-7-4-11-18.5-11-18.5c-2.5-11-6.5-11-9,0c0,0-4,14.5-11,18.5s-9,8.5-4.5,10.5
	c4.47,1.99,0.55,14.33-6.36,19.89c-0.04-0.12-0.07-0.23-0.11-0.35c-6.5-20.68,0.32-43.25,16.93-57.18
	c17.23-14.46,32.51-26.02,37.13-27.07c5.62-0.39,14.21-0.6,22.53-0.8c9.04-0.22,17.57-0.42,23.23-0.86
	c7.13-0.55,16.51-9.86,43.66-38.51c16.83-17.76,42.25-44.59,50.2-46.76c7.49-2.05,19.7,6.4,30.46,13.85
	c9.5,6.58,19.32,13.38,28.7,15.41c8.42,1.83,14.55,0.67,19.02-0.18c6.28-1.19,9.15-1.74,18.12,8.05
	c17.14,18.7,37.62,32.64,62.62,42.64c12.18,4.87,25.66,3.84,37.55,2.93c8-0.61,17.06-1.3,19.74,0.93c0.07,0.06,0.14,0.12,0.21,0.18
	C512.61,291.26,520.72,313.82,516.86,335.95z M122.01,206.8c1.02,0,1.96-0.57,2.44-1.47c21.15-39.79,55.9-71.85,99.81-89.58
	c1.27-0.51,2.09-1.84,1.83-3.19c-0.35-1.81-2.22-2.77-3.85-2.11c-36.88,14.87-68.34,40.11-90.96,73
	c-4.28,6.23-8.19,12.66-11.71,19.26C118.59,204.56,119.92,206.8,122.01,206.8z M363.36,110.41c-0.22,1.35,0.64,2.65,1.93,3.13
	c45.97,16.9,82.91,50.17,105.17,91.72c0.51,0.95,1.49,1.54,2.57,1.54c2.21,0,3.62-2.36,2.57-4.31c-3.98-7.42-8.45-14.63-13.39-21.59
	c-23.8-33.49-56.67-58.63-95.07-72.72C365.49,107.57,363.65,108.59,363.36,110.41z M174.04,201.47c1.21,1.17,1.81,1.75,3.01,2.92
	c0.97,0.94,1.4,1.9,1.3,2.87c-0.09,0.98-0.66,2.02-1.7,3.16c-1.04,1.14-2.03,1.8-2.99,1.99c-0.96,0.19-1.96-0.15-2.98-1.04
	c-4.73-4.1-7.1-6.15-11.83-10.25c-1.02-0.88-1.47-1.85-1.35-2.91c0.12-1.06,0.77-2.26,1.96-3.56c1.18-1.3,2.3-2.05,3.34-2.26
	c1.04-0.21,2.04,0.16,3,1.1c1.07,1.04,1.61,1.56,2.68,2.6c4.92-5.11,7.48-7.52,12.78-12.03c-3.35-3.96-5.03-5.93-8.38-9.89
	c-1.14,0.42-2.42,0.95-3.84,1.59c-1.42,0.64-2.99,1.5-4.68,2.59c-1.7,1.09-3.53,2.44-5.47,4.05c-1.95,1.61-4.03,3.61-6.22,6.01
	c-3.17,3.49-5.68,7.05-7.51,10.57c-1.83,3.52-2.85,6.91-3.08,10.07c-0.23,3.16,0.38,6.1,1.78,8.78c1.4,2.68,3.71,5.02,6.86,7.09
	c3.18,2.09,6.24,3.29,9.15,3.69c2.91,0.41,5.69,0.15,8.36-0.72c2.67-0.87,5.24-2.29,7.77-4.24c2.53-1.95,5.02-4.32,7.55-7.09
	c1.7-1.86,3.17-3.57,4.42-5.17c1.25-1.6,2.33-3.06,3.25-4.41c0.91-1.35,1.67-2.6,2.26-3.75c0.6-1.15,1.09-2.16,1.47-3.03
	c-3.47-4.1-5.21-6.15-8.68-10.25C181.2,194.27,178.74,196.58,174.04,201.47z M234.92,169.61c-7.73-8.48-15.5-16.33-23.9-24.15
	c-8.32,4-16.61,8.84-24.18,14.11c2.63,11.2,5.59,21.88,9.1,32.83c-0.82,0.65-1.23,0.98-2.05,1.65c2.15,2.64,3.22,3.96,5.37,6.59
	c6.61-5.41,10.08-7.86,17.23-12.22c-1.77-2.9-2.66-4.36-4.43-7.26c-1.32,0.81-1.98,1.22-3.29,2.06c-0.54-1.6-0.8-2.41-1.32-4.02
	c3.03-1.92,4.56-2.83,7.67-4.58c1.19,1.21,1.79,1.82,2.96,3.04c-1.35,0.75-2.02,1.13-3.36,1.91c1.72,2.94,2.58,4.41,4.29,7.34
	c8.28-4.83,12.58-6.9,21.39-10.35c-1.25-3.16-1.88-4.75-3.12-7.91C236.33,169.03,235.86,169.22,234.92,169.61z M205.79,173.77
	c-1.24-4.12-1.83-6.19-2.94-10.36c0.25-0.15,0.37-0.22,0.62-0.37c3.14,2.96,4.68,4.46,7.72,7.51
	C209,171.79,207.93,172.43,205.79,173.77z M234.82,144.69c3.13,8.79,4.69,13.19,7.81,21.98c-1.44,0.51-2.15,0.77-3.58,1.31
	c1.21,3.18,1.82,4.77,3.03,7.94c7.89-2.99,11.93-4.2,20.09-6.09c-0.77-3.31-1.16-4.97-1.94-8.28c-1.48,0.34-2.21,0.52-3.68,0.89
	c-2.06-7.97-3.09-11.95-5.15-19.92c7.4,8.27,13.98,16.4,20.5,25.38c2.55-0.42,3.82-0.6,6.38-0.92c2.67-10.11,6.24-20.36,10.43-29.94
	c0.4,8.18,0.59,12.26,0.99,20.44c-1.51,0.07-2.26,0.12-3.77,0.22c0.24,3.39,0.36,5.09,0.61,8.48c9.52-0.67,14.32-0.64,23.83,0.13
	c0.28-3.39,0.42-5.08,0.7-8.47c-1.5-0.12-2.26-0.17-3.77-0.26c0.55-9.31,0.83-13.96,1.37-23.27c1.72,0.1,2.58,0.16,4.3,0.3
	c0.28-3.39,0.42-5.08,0.7-8.47c-11.79-0.6-22.78-0.53-34.57,0.22c-2.62,7.38-3.78,11.1-5.79,18.55c-4.06-6.62-6.24-9.88-10.89-16.27
	c-11.84,2.13-23.49,5.35-34.74,9.6c1.21,3.18,1.82,4.77,3.03,7.94C232.37,145.56,233.18,145.26,234.82,144.69z M313.84,158.09
	c-0.34,3.38-0.5,5.07-0.84,8.46c10.36,1.01,15.52,1.94,25.61,4.66c0.89-3.28,1.34-4.92,2.24-8.2c-2.34-0.63-3.52-0.93-5.88-1.47
	c0.68-2.91,1.02-4.36,1.7-7.27c2.8,0.65,4.2,1,6.98,1.76c2.59,0.71,4.98,1.21,7.21,1.47c2.22,0.26,4.21,0.21,5.97-0.19
	c1.77-0.4,3.32-1.15,4.67-2.28c1.35-1.13,2.44-2.74,3.26-4.83c0.81-2.06,1.08-3.97,0.8-5.75c-0.29-1.77-1.06-3.41-2.33-4.89
	c-1.27-1.48-3.02-2.83-5.25-4c-2.23-1.17-4.84-2.19-7.8-3c-11.2-2.72-21.76-4.67-33.19-6.13c-0.34,3.38-0.5,5.07-0.84,8.46
	c1.72,0.17,2.57,0.26,4.29,0.47c-1.13,9.26-1.7,13.89-2.83,23.14C316.1,158.32,315.34,158.24,313.84,158.09z M340.27,138.83
	c0.96,0.22,1.43,0.33,2.39,0.57c1.35,0.33,2.3,0.84,2.84,1.52c0.54,0.68,0.65,1.59,0.34,2.72c-0.2,0.72-0.29,1.08-0.49,1.8
	c-0.31,1.13-0.87,1.86-1.67,2.19c-0.8,0.33-1.82,0.33-3.07,0.03c-0.91-0.22-1.37-0.33-2.28-0.54
	C339.11,143.8,339.5,142.14,340.27,138.83z M389.33,175.31c-1.74,2.78-2.61,4.16-4.36,6.94c-2.65-1.66-4-2.46-6.71-3.99
	c1.81-3.22,2.72-4.83,4.53-8.04c2.09,1.17,3.12,1.78,5.17,3.03c1.23-2.02,1.85-3.03,3.08-5.05c-2.12-1.29-3.19-1.92-5.35-3.13
	c1.61-2.86,2.41-4.28,4.02-7.14c3.1,1.74,4.63,2.65,7.66,4.55c-1.52,2.42-2.28,3.64-3.8,6.06c5.39,3.39,8.03,5.21,13.16,9.12
	c3.79-4.99,5.68-7.49,9.47-12.48c-14.57-10.42-29.26-18.73-45.73-25.83c-1.26,3.16-1.9,4.74-3.16,7.9c1.62,0.64,2.43,0.97,4.04,1.66
	c-3.67,8.58-5.5,12.87-9.17,21.46c-1.41-0.6-2.11-0.89-3.53-1.45c-1.26,3.16-1.9,4.74-3.16,7.9c13.18,5.23,24.78,12.38,36.32,20.52
	c4.04-5.32,6.06-7.98,10.09-13.3C397.01,180.29,394.49,178.55,389.33,175.31z M451.46,201.02c-1.34-2.4-3.09-4.89-5.24-7.42
	c-8.11-9.5-17.13-18.23-26.92-26.01c-2.11,2.67-3.17,4-5.28,6.67c1.41,1.12,2.11,1.69,3.5,2.85c-5.96,7.18-8.95,10.77-14.91,17.95
	c-1.22-1.02-1.83-1.51-3.06-2.5c-2.11,2.67-3.17,4-5.28,6.67c7.92,6.3,11.7,9.82,18.7,17.59c2.52-2.28,3.78-3.43,6.3-5.71
	c-1.2-1.33-1.81-1.99-3.03-3.28c2.46-2.35,3.68-3.53,6.14-5.88c1.01,1.06,1.82,2.03,2.44,2.89c0.61,0.85,1.03,1.66,1.24,2.39
	c0.21,0.73,0.17,1.43-0.11,2.08c-0.28,0.65-0.81,1.32-1.6,2c-3.68,3.2-5.52,4.79-9.19,7.99c5.36,6.22,7.89,9.55,12.57,16.68
	c2.84-1.87,4.26-2.8,7.1-4.66c-0.73-1.11-1.1-1.67-1.85-2.76c1.32-0.9,1.97-1.35,3.29-2.26c2.93-2.01,3.3-5.16,0.89-9.27
	c0.15-0.15,0.22-0.22,0.37-0.37c2.06,1.61,4.14,2.5,6.3,2.63c2.16,0.14,4.19-0.4,6.07-1.69c1.77-1.21,2.99-2.64,3.64-4.31
	c0.65-1.67,0.81-3.54,0.45-5.59C453.64,205.67,452.8,203.42,451.46,201.02z M436.41,200.32c-0.56,0.49-0.84,0.74-1.41,1.23
	c-0.89,0.77-1.76,1.05-2.62,0.85c-0.86-0.2-1.77-0.83-2.73-1.89c-1.07-1.18-1.62-1.77-2.71-2.92c2.46-2.35,3.68-3.53,6.14-5.88
	c1.15,1.21,1.72,1.82,2.84,3.06c1.01,1.11,1.56,2.13,1.67,3.04C437.69,198.71,437.29,199.55,436.41,200.32z M243.35,122.01
	c-1.45-5.14-2.18-7.71-3.63-12.85c2.53-0.71,3.8-1.05,6.34-1.69c1.29,5.18,1.94,7.77,3.24,12.96c1.78-0.44,2.66-0.65,4.45-1.06
	c-2.18-9.68-4.37-19.36-6.55-29.04c-2.05,0.46-3.07,0.71-5.11,1.21c1.19,4.76,1.78,7.14,2.97,11.9c-2.59,0.65-3.89,0.99-6.46,1.72
	c-1.34-4.72-2-7.08-3.34-11.81c-2.01,0.57-3.01,0.86-5.01,1.48c2.92,9.48,5.84,18.97,8.75,28.45
	C240.73,122.77,241.6,122.51,243.35,122.01z M268.35,116.65c0.03-2.29,0.05-3.43,0.09-5.72c2.3-0.33,3.45-0.48,5.76-0.75
	c0.63,2.2,0.94,3.3,1.55,5.51c1.78-0.2,2.67-0.28,4.45-0.44c-2.77-9.74-5.86-19.46-9.24-29.01c-2.16,0.25-3.25,0.39-5.41,0.7
	c-0.86,10.07-1.4,20.24-1.62,30.34c0.01,0.03,0.01,0.05,0.01,0.08C265.71,117.05,266.59,116.91,268.35,116.65z M269.1,93.42
	c1.66,5.2,2.46,7.81,4.01,13.04c-1.84,0.22-2.75,0.34-4.59,0.59C268.69,101.6,268.81,98.88,269.1,93.42z M295.08,114.5
	c-0.06-4.31-0.08-6.47-0.14-10.78c3.07-0.04,4.61-0.03,7.68,0.04c1.93,0.05,2.93-0.84,3-2.69c0.2-5.38,0.3-8.07,0.51-13.46
	c0.07-1.82-0.95-2.78-3.06-2.83c-5.42-0.13-8.13-0.11-13.55,0.08c0.35,9.92,0.7,19.83,1.05,29.75
	C292.38,114.55,293.28,114.52,295.08,114.5z M300.97,88.56c-0.07,4.53-0.1,6.8-0.17,11.34c-2.36-0.03-3.54-0.04-5.9-0.01
	c-0.06-4.53-0.09-6.8-0.15-11.34C297.24,88.53,298.48,88.53,300.97,88.56z M321.9,105.1c3.06,0.36,4.59,0.56,7.63,1.03
	c1.92,0.29,3.02-0.45,3.33-2.28c0.89-5.31,1.34-7.97,2.23-13.28c0.3-1.8-0.59-2.88-2.68-3.2c-5.37-0.82-8.07-1.16-13.47-1.66
	c-0.92,9.88-1.84,19.76-2.77,29.64c1.79,0.17,2.69,0.26,4.48,0.47C321.16,111.53,321.41,109.39,321.9,105.1z M323.65,90.05
	c2.47,0.29,3.71,0.45,6.18,0.8c-0.65,4.49-0.97,6.73-1.62,11.22c-2.34-0.34-3.52-0.49-5.87-0.76
	C322.87,96.8,323.13,94.55,323.65,90.05z M350.5,121.62c1.16-4.22,1.74-6.33,2.9-10.55c1.63-2.58,2.89-4.38,3.74-5.41
	c3.05-4.3,4.62-6.44,7.85-10.65c0.01-0.02,0.02-0.08,0.05-0.16c-2.05-0.63-3.08-0.93-5.14-1.52c-3,4.53-4.46,6.81-7.29,11.42
	c-0.21-5.4-0.36-8.11-0.75-13.53c-2.09-0.51-3.13-0.75-5.22-1.21c-0.04,0.1-0.05,0.15-0.04,0.17c0.72,5.25,1.04,7.88,1.56,13.12
	c0.02,0.17,0.17,1.27,0.43,3.28c0.14,1.17,0.19,2.26,0.16,3.27c-1.06,4.24-1.59,6.37-2.66,10.61
	C347.86,120.9,348.75,121.14,350.5,121.62z M221.26,303.12c-1.97-0.53-3.43-2.18-3.86-4.18c-0.59-2.78-1.56-4.6-2.66-4.6
	c-1.16,0-2.18,2.04-2.76,5.11c-0.37,1.95-1.81,3.52-3.68,4.16c-1.65,0.56-2.66,1.29-2.62,2.04c0.03,0.72,1,1.33,2.55,1.75
	c1.97,0.53,3.43,2.18,3.86,4.18c0.59,2.78,1.56,4.6,2.66,4.6c1.16,0,2.18-2.04,2.76-5.11c0.37-1.95,1.81-3.52,3.68-4.16
	c1.65-0.56,2.66-1.29,2.62-2.04C223.79,304.15,222.82,303.54,221.26,303.12z M145.22,328.22c-0.65-0.17-1.13-0.72-1.27-1.37
	c-0.19-0.91-0.51-1.51-0.87-1.51c-0.38,0-0.72,0.67-0.91,1.68c-0.12,0.64-0.59,1.15-1.21,1.36c-0.54,0.18-0.87,0.42-0.86,0.67
	c0.01,0.24,0.33,0.44,0.84,0.57c0.65,0.17,1.13,0.72,1.27,1.37c0.19,0.91,0.51,1.51,0.87,1.51c0.38,0,0.72-0.67,0.91-1.68
	c0.12-0.64,0.59-1.15,1.21-1.36c0.54-0.18,0.87-0.42,0.86-0.67C146.05,328.56,145.73,328.36,145.22,328.22z M413.33,284.8
	c-0.65-0.17-1.13-0.72-1.27-1.37c-0.19-0.91-0.51-1.51-0.87-1.51c-0.38,0-0.72,0.67-0.91,1.68c-0.12,0.64-0.59,1.15-1.21,1.36
	c-0.54,0.18-0.87,0.42-0.86,0.67c0.01,0.24,0.33,0.44,0.84,0.57c0.65,0.17,1.13,0.72,1.27,1.37c0.19,0.91,0.51,1.51,0.87,1.51
	c0.38,0,0.72-0.67,0.91-1.68c0.12-0.64,0.59-1.15,1.21-1.36c0.54-0.18,0.87-0.42,0.86-0.67
	C414.16,285.14,413.84,284.94,413.33,284.8z M255.47,264.7c-1.43-0.39-2.49-1.58-2.8-3.03c-0.43-2.02-1.13-3.33-1.93-3.33
	c-0.84,0-1.58,1.48-2,3.7c-0.27,1.41-1.31,2.55-2.67,3.01c-1.2,0.41-1.93,0.93-1.9,1.48c0.02,0.52,0.72,0.97,1.85,1.27
	c1.43,0.39,2.49,1.58,2.8,3.03c0.43,2.02,1.13,3.33,1.93,3.33c0.84,0,1.58-1.48,2-3.7c0.27-1.41,1.31-2.55,2.67-3.01
	c1.2-0.41,1.93-0.93,1.9-1.48C257.3,265.45,256.6,265.01,255.47,264.7z M386.14,315.37c-1.43-0.39-2.49-1.58-2.8-3.03
	c-0.43-2.02-1.13-3.33-1.93-3.33c-0.84,0-1.58,1.48-2,3.7c-0.27,1.41-1.31,2.55-2.67,3.01c-1.2,0.41-1.93,0.93-1.9,1.48
	c0.02,0.52,0.72,0.97,1.85,1.27c1.43,0.39,2.49,1.58,2.8,3.03c0.43,2.02,1.13,3.33,1.93,3.33c0.84,0,1.58-1.48,2-3.7
	c0.27-1.41,1.31-2.55,2.67-3.01c1.2-0.41,1.93-0.93,1.9-1.48C387.97,316.12,387.27,315.67,386.14,315.37z M304.14,223.37
	c-1.43-0.38-2.49-1.58-2.8-3.03c-0.43-2.02-1.13-3.33-1.93-3.33c-0.84,0-1.58,1.48-2,3.7c-0.27,1.41-1.31,2.55-2.67,3.01
	c-1.2,0.41-1.93,0.93-1.9,1.48c0.02,0.52,0.72,0.97,1.85,1.27c1.43,0.39,2.49,1.58,2.8,3.03c0.43,2.02,1.13,3.33,1.93,3.33
	c0.84,0,1.58-1.48,2-3.7c0.27-1.41,1.31-2.55,2.67-3.01c1.2-0.41,1.93-0.93,1.9-1.48C305.97,224.12,305.27,223.68,304.14,223.37z
	 M303.41,273.5c-1.01-0.27-1.76-1.12-1.97-2.14c-0.3-1.42-0.8-2.35-1.36-2.35c-0.59,0-1.12,1.04-1.41,2.61
	c-0.19,1-0.92,1.8-1.88,2.13c-0.84,0.29-1.36,0.66-1.34,1.04c0.02,0.37,0.51,0.68,1.31,0.9c1.01,0.27,1.76,1.12,1.97,2.14
	c0.3,1.42,0.8,2.35,1.36,2.35c0.59,0,1.12-1.04,1.41-2.61c0.19-1,0.92-1.8,1.88-2.13c0.84-0.29,1.36-0.66,1.34-1.04
	C304.7,274.02,304.21,273.71,303.41,273.5z M168.64,295.6c-1.01-0.27-1.76-1.12-1.97-2.14c-0.3-1.42-0.8-2.35-1.36-2.35
	c-0.59,0-1.12,1.04-1.41,2.61c-0.19,1-0.92,1.8-1.88,2.13c-0.84,0.29-1.36,0.66-1.34,1.04c0.02,0.37,0.51,0.68,1.31,0.9
	c1.01,0.27,1.76,1.12,1.97,2.14c0.3,1.42,0.8,2.35,1.36,2.35c0.59,0,1.12-1.04,1.41-2.61c0.19-1,0.92-1.8,1.88-2.13
	c0.84-0.29,1.36-0.66,1.34-1.04C169.93,296.13,169.43,295.82,168.64,295.6z M375.33,251.37c-0.02-0.37-0.51-0.68-1.31-0.9
	c-1.01-0.27-1.76-1.12-1.97-2.14c-0.3-1.42-0.8-2.35-1.36-2.35c-0.59,0-1.12,1.04-1.41,2.61c-0.19,1-0.92,1.8-1.88,2.13
	c-0.84,0.29-1.36,0.66-1.34,1.04c0.02,0.37,0.51,0.68,1.31,0.9c1.01,0.27,1.76,1.12,1.97,2.14c0.3,1.42,0.8,2.35,1.36,2.35
	c0.59,0,1.12-1.04,1.41-2.61c0.19-1,0.92-1.8,1.88-2.13C374.83,252.13,375.35,251.76,375.33,251.37z M463.19,310.85
	c-1.01-0.27-1.76-1.12-1.97-2.14c-0.3-1.42-0.8-2.35-1.36-2.35c-0.59,0-1.12,1.04-1.41,2.61c-0.19,1-0.92,1.8-1.88,2.13
	c-0.84,0.29-1.36,0.66-1.34,1.04c0.02,0.37,0.51,0.68,1.31,0.9c1.01,0.27,1.76,1.12,1.97,2.14c0.3,1.42,0.8,2.35,1.36,2.35
	c0.59,0,1.12-1.04,1.41-2.61c0.19-1,0.92-1.8,1.88-2.13c0.84-0.29,1.36-0.66,1.34-1.04C464.48,311.37,463.98,311.06,463.19,310.85z"
	/>
</svg>
